<?xml version="1.0" encoding="UTF-8"?>
<svg xmlns="http://www.w3.org/2000/svg" viewBox="0 0 440.75 437.52">
  <defs>
    <style>
      .cls-1 {
        fill: #b16668;
      }

      .cls-1, .cls-2, .cls-3, .cls-4, .cls-5, .cls-6, .cls-7, .cls-8, .cls-9, .cls-10, .cls-11, .cls-12, .cls-13, .cls-14, .cls-15, .cls-16, .cls-17, .cls-18, .cls-19, .cls-20 {
        stroke-width: 0px;
      }

      .cls-2 {
        fill: #9a4a4d;
      }

      .cls-21, .cls-8 {
        opacity: .1;
      }

      .cls-3 {
        opacity: .2;
      }

      .cls-3, .cls-6, .cls-7, .cls-8, .cls-10 {
        fill: #000;
      }

      .cls-4 {
        fill: #e0e0e0;
      }

      .cls-5 {
        fill: #27debf;
      }

      .cls-7 {
        opacity: .05;
      }

      .cls-9 {
        opacity: .5;
      }

      .cls-9, .cls-19 {
        fill: #37474f;
      }

      .cls-10 {
        opacity: .15;
      }

      .cls-11 {
        fill: #455a64;
      }

      .cls-12 {
        fill: #263238;
      }

      .cls-13 {
        fill: #ffa8a7;
      }

      .cls-22 {
        opacity: .35;
      }

      .cls-14 {
        opacity: .4;
      }

      .cls-14, .cls-18 {
        fill: #fff;
      }

      .cls-15 {
        fill: #ebebeb;
      }

      .cls-16 {
        fill: #f28f8f;
      }

      .cls-17 {
        fill: #fafafa;
      }

      .cls-20 {
        fill: #f5f5f5;
      }
    </style>
  </defs>
  <g id="Floor">
    <path id="Floor-2" data-name="Floor" class="cls-20" d="M64.55,403.8c86.06,44.96,225.6,44.96,311.66,0,86.06-44.96,86.06-117.86,0-162.81-86.06-44.96-225.6-44.96-311.66,0-86.06,44.96-86.06,117.86,0,162.81Z"/>
  </g>
  <g id="Shadows">
    <path id="Shadow" class="cls-4" d="M326.82,361.78c-15.97,9.22-41.86,9.22-57.83,0-15.97-9.22-15.97-24.17,0-33.39,15.97-9.22,41.86-9.22,57.83,0,15.97,9.22,15.97,24.17,0,33.39Z"/>
    <path id="Shadow-2" data-name="Shadow" class="cls-4" d="M398.2,321.83c-14.12,8.15-37.02,8.15-51.15,0s-14.12-21.38,0-29.53c14.12-8.15,37.02-8.15,51.15,0,14.12,8.15,14.12,21.38,0,29.53Z"/>
  </g>
  <g id="Clouds">
    <g id="Clouds-2" data-name="Clouds">
      <path class="cls-15" d="M340.5,39.08l6.39,3.69c-.03-.29-.05-.57-.05-.85v-1.85c0-3.3,2.31-4.63,5.17-2.98,1.16.67,2.22,1.73,3.08,2.96.47-4.14,3.72-5.69,7.67-3.41,4.27,2.47,7.73,8.46,7.73,13.39v2.77c0,1.28-.24,2.35-.65,3.21l5.31,3.07c1.58.91,2.87,3.14,2.87,4.97s-1.28,2.57-2.87,1.66l-34.65-20c-1.58-.91-2.87-3.14-2.87-4.97s1.28-2.57,2.87-1.66Z"/>
      <path class="cls-15" d="M313.14,57.71l4.83,2.79c-.02-.22-.04-.43-.04-.64v-1.4c0-2.49,1.75-3.5,3.9-2.25.87.5,1.68,1.3,2.32,2.24.35-3.13,2.81-4.29,5.79-2.57,3.22,1.86,5.84,6.39,5.84,10.11v2.09c0,.96-.18,1.78-.49,2.42l4.01,2.31c1.2.69,2.16,2.37,2.16,3.75s-.97,1.94-2.16,1.25l-26.15-15.1c-1.2-.69-2.16-2.37-2.16-3.75s.97-1.94,2.16-1.25Z"/>
    </g>
  </g>
  <g id="Plants">
    <g id="Plants-2" data-name="Plants">
      <path class="cls-11" d="M46.9,356.02c-.64.35-12.41,3.69-16.77-2.07-4.36-5.76,2.88-14.74-1.22-18.05-4.09-3.31-15.56.02-18.32-6.95-2.76-6.97,5.42-9.96.82-16.98-2.9-4.42-11.01-6.86-10.63-10.98.54-6.02,11.62-7.64,21.3-1.19,9.68,6.45,14.18,1.17,17.25.73s9.69.52,9.48,11.3c-.21,10.78-1.91,44.2-1.91,44.2Z"/>
      <path class="cls-18" d="M47.68,340.69c-.31,0-.58-.22-.63-.54-3.37-20.46-27.15-37.11-39.52-40.68-.34-.1-.54-.45-.44-.79.1-.34.45-.54.79-.44,12.64,3.65,36.97,20.71,40.43,41.7.06.35-.18.68-.53.74-.03,0-.07,0-.11,0Z"/>
      <path class="cls-18" d="M19.64,323.57c-.22,0-.43-.11-.55-.31-.18-.3-.08-.7.22-.88.39-.23,9.53-5.58,18.55-3.08.34.09.54.45.45.79s-.44.55-.79.45c-8.48-2.35-17.46,2.89-17.55,2.94-.1.06-.22.09-.33.09Z"/>
    </g>
    <g id="Plants-3" data-name="Plants">
      <g>
        <g>
          <path class="cls-5" d="M391.51,301.71l-3.12-1.44s-1.02-11.18.05-18.65c1.98-13.91,11.72-25.9,20.36-27.31,11.15-1.82,9.17,8.44,2.79,12.86-10.15,7.04-18.08,17.81-20.08,34.54Z"/>
          <g class="cls-21">
            <path class="cls-6" d="M391.51,301.71l-3.12-1.44s-1.02-11.18.05-18.65c1.98-13.91,11.72-25.9,20.36-27.31,11.15-1.82,9.17,8.44,2.79,12.86-10.15,7.04-18.08,17.81-20.08,34.54Z"/>
          </g>
          <path class="cls-18" d="M390.34,297.23s.04,0,.06,0c.3-.06.49-.34.43-.64-2.16-11.43,7.25-32.62,19.84-38.63.27-.13.39-.45.26-.73-.13-.27-.45-.39-.73-.26-12.96,6.2-22.66,28.04-20.44,39.82.05.28.31.46.58.44Z"/>
        </g>
        <path class="cls-5" d="M388.4,300.26c-.23-1.65-.33-4.08-.36-4.67-.11-2.1.16-4.23.91-6.2.98-2.59,2.78-4.88,5.17-6.27,1.3-.75,2.82-1.3,3.66-2.54.73-1.07.8-2.43.95-3.71.26-2.09.91-4.3,2.58-5.58,1.67-1.27,3.95-1.31,6.03-1.09,3,.32,5.81.72,8.61-.65,2.27-1.11,4.53-2.3,6.92-3.12,2.99-1.03,9.71-2.5,11.13,1.71.38,1.14.04,2.43-.61,3.43-.66,1.01-1.6,1.79-2.52,2.56-1.56,1.3-3.13,2.6-4.69,3.9-.53.44-1.07.9-1.42,1.49-.91,1.56-.27,3.53-.47,5.32-.2,1.82-1.34,3.47-2.87,4.48-1.53,1-3.42,1.39-5.25,1.27-2.45-.17-6.45-2.05-7.94.84-.49.95-.59,2.04-.72,3.1-.14,1.06-.35,2.16-1.01,2.99-.98,1.22-2.67,1.57-4.23,1.73-2.17.22-4.41.24-6.45,1.04-.84.33-1.37,1.4-1.86,2.11-1.53-.57-3.21-1.18-5.55-2.17Z"/>
      </g>
      <path class="cls-18" d="M389.79,299.41c-.08,0-.16,0-.23-.03-.26-.1-.38-.4-.28-.66,6.3-15.65,26.4-26.86,38.38-30.57.27-.08.55.07.63.33.08.27-.07.55-.33.63-11.79,3.66-31.57,14.67-37.74,29.99-.07.18-.24.3-.43.31Z"/>
    </g>
  </g>
  <g id="Pen">
    <g id="Pen-2" data-name="Pen">
      <g>
        <path class="cls-5" d="M247.26,271.45c0,3.57,2.51,7.92,5.61,9.71,1.2.7,2.31.9,3.22.68-.18.19-.39.35-.61.48l1.35-.77s.05-.03.08-.05c.07-.04.13-.09.2-.14.09-.06.17-.14.25-.21.05-.05.1-.1.14-.15.01,0,.02-.01.03-.03.04-.05.09-.1.13-.17.19-.24.34-.52.46-.83.03-.09.07-.18.1-.27.02-.05.03-.09.04-.14.03-.08.05-.17.06-.25.1-.42.15-.88.15-1.39,0-3.57-2.51-7.92-5.6-9.71-.9-.52-1.75-.77-2.51-.77h-.02c-.12,0-.23,0-.34.02l-.32.06c-.07.01-.13.03-.19.06l-.12.03c-.08.03-.15.06-.23.1l-.05.02c-.07.03-.14.07-.21.11l-1.17.67c.19-.1.39-.17.61-.21-.66.68-1.04,1.75-1.04,3.15ZM256.49,281.71s.06-.03.1-.05c-.03.01-.06.03-.1.05Z"/>
        <path class="cls-15" d="M130.85,335.96l7.91,13.74,1.34-.77,115.39-66.62c.22-.12.43-.28.61-.48.65-.68,1.03-1.75,1.03-3.15,0-3.57-2.51-7.92-5.61-9.71-.9-.52-1.75-.77-2.5-.77-.25,0-.48.03-.71.08-.21.04-.42.12-.61.21-.03.01-.07.03-.1.05l-.03.02s0,0-.01,0l-116.7,67.38Z"/>
        <path class="cls-5" d="M134.81,336.36c-3.1-1.79-5.6-.34-5.6,3.24,0,3.57,2.51,7.92,5.6,9.71,3.1,1.79,5.6.34,5.6-3.24s-2.51-7.92-5.6-9.71Z"/>
      </g>
      <path class="cls-4" d="M122.76,344.68c.04-.06.09-.11.14-.16l7.15-7.86s0-.01.01-.02l.06-.06s.09-.1.13-.14l.08-.08h0c1.02-.98,2.64-1.06,4.48,0,3.1,1.79,5.6,6.13,5.6,9.71,0,2.07-.85,3.43-2.16,3.85h0s-.09.02-.09.02c-.13.04-.27.07-.41.09l-.09.02s-.02,0-.03,0l-10.37,2.26c-.52.12-1.14,0-1.81-.39-1.77-1.02-3.21-3.5-3.21-5.55,0-.73.18-1.3.5-1.69Z"/>
      <g>
        <path class="cls-11" d="M214.37,293.65s.02-.02.03-.02l.19-.11c.34-.15.8-.1,1.3.19,1.1.63,1.99,2.19,1.99,3.46,0,.56-.17.97-.46,1.2,0,0,0,0,0,0l-.24.14-85.17,49.17-5.6-3.24,87.97-50.79Z"/>
        <path class="cls-19" d="M139.92,343.11l-7.91,4.57-5.6-3.24,10.71-6.18c1.24,1.36,2.24,3.09,2.8,4.85Z"/>
      </g>
      <g>
        <g>
          <path class="cls-5" d="M119.94,348.42h0s0,0,0,0l6.49-7.13c.06-.07.11-.14.17-.19.72-.72,1.88-.78,3.2-.02,2.19,1.26,3.96,4.33,3.96,6.86,0,1.46-.59,2.42-1.51,2.73-.02,0-.04.01-.06.02l-.26.06-9.51,2.07h0c-.29.06-.64,0-1.02-.22-1-.57-1.8-1.97-1.8-3.12,0-.46.14-.81.36-1.03Z"/>
          <path class="cls-8" d="M119.94,348.42h0s0,0,0,0l6.49-7.13c.06-.07.11-.14.17-.19.72-.72,1.88-.78,3.2-.02,2.19,1.26,3.96,4.33,3.96,6.86,0,1.46-.59,2.42-1.51,2.73-.02,0-.04.01-.06.02l-.26.06-9.51,2.07h0c-.29.06-.64,0-1.02-.22-1-.57-1.8-1.97-1.8-3.12,0-.46.14-.81.36-1.03Z"/>
        </g>
        <g>
          <path class="cls-5" d="M119.58,349.45c0,1.15.81,2.55,1.81,3.12.38.22.73.29,1.02.22h0s4.81-1.04,4.81-1.04c.76-.16,1.25-.88,1.25-2.02,0-1.84-1.29-4.08-2.88-5-.94-.55-1.78-.5-2.31,0l-.13.14-3.22,3.53h0c-.22.22-.36.57-.36,1.04Z"/>
          <path class="cls-8" d="M121.39,348.41c-1-.57-1.8-.11-1.8,1.04s.81,2.55,1.8,3.12c1,.57,1.8.11,1.8-1.04s-.81-2.55-1.8-3.12Z"/>
        </g>
      </g>
      <g>
        <path class="cls-17" d="M235.59,281.4c.36-.21.86-.18,1.41.14,1.1.63,1.99,2.17,1.98,3.44,0,.64-.22,1.09-.59,1.29h0l-20.96,12.1c.29-.23.46-.64.46-1.2,0-1.27-.9-2.82-1.99-3.46-.5-.29-.96-.34-1.3-.19l20.99-12.12Z"/>
        <path class="cls-20" d="M235.01,282.68c0,1.26.89,2.8,1.99,3.44.54.31,1.03.34,1.39.14.37-.2.59-.64.59-1.28,0-1.26-.88-2.8-1.98-3.44-.55-.32-1.05-.35-1.41-.14-.36.21-.58.66-.58,1.28Z"/>
      </g>
      <path class="cls-5" d="M239.44,274.19h0s.06-.04.06-.04c.03-.02.06-.03.09-.05l8.27-4.77c.06-.04.13-.08.19-.11l.05-.03h0c.9-.44,2.1-.33,3.42.43,2.79,1.61,5.04,5.52,5.04,8.74,0,1.62-.57,2.75-1.49,3.27h0s-8.37,4.83-8.37,4.83c-.01,0-.03.02-.04.03l-.05.03h0c-.91.48-2.14.39-3.49-.39-2.79-1.61-5.04-5.52-5.04-8.74,0-1.55.52-2.64,1.38-3.19Z"/>
      <path class="cls-7" d="M239.44,274.19h0s.06-.04.06-.04c.03-.02.06-.03.09-.05l8.27-4.77c.06-.04.13-.08.19-.11l.05-.03h0c.9-.44,2.1-.33,3.42.43,2.79,1.61,5.04,5.52,5.04,8.74,0,1.62-.57,2.75-1.49,3.27h0s-8.37,4.83-8.37,4.83c-.01,0-.03.02-.04.03l-.05.03h0c-.91.48-2.14.39-3.49-.39-2.79-1.61-5.04-5.52-5.04-8.74,0-1.55.52-2.64,1.38-3.19Z"/>
      <path class="cls-8" d="M243.11,274.48c-2.79-1.61-5.04-.3-5.04,2.91,0,3.22,2.26,7.13,5.04,8.74,2.79,1.61,5.04.3,5.04-2.91s-2.26-7.13-5.04-8.74Z"/>
      <g>
        <path class="cls-11" d="M117.29,351.42h0l3.42-2.05h0c.17-.11.41-.1.67.05.51.29.92,1.01.92,1.6,0,.29-.1.5-.27.6h0l-3.41,2.06h0c-.19.1-.4.16-.63.16-.73,0-1.31-.59-1.31-1.31,0-.47.24-.88.61-1.11Z"/>
        <path class="cls-12" d="M117.1,351.58h0c.06-.06.12-.11.18-.15,0,0,0,0,.01,0,.16-.06.37-.03.59.1.51.3.92,1.01.92,1.6,0,.29-.1.49-.26.59-.02.01-.05.03-.07.03-.02.01-.07.03-.07.03-.13.06-.27.07-.42.07-.72,0-1.31-.59-1.31-1.32,0-.38.16-.72.41-.95Z"/>
      </g>
    </g>
  </g>
  <g id="Agreement">
    <g id="Contract">
      <g>
        <path class="cls-5" d="M51.08,360.56l-3.49-2.01c-1.1-.64-1.99-2.18-1.99-3.45V96.54c0-1.27.89-2.81,1.99-3.45L208,.48c1.1-.64,2.88-.64,3.98,0l3.49,2.02c1.1.64,1.99,2.18,1.99,3.45v258.56c0,1.27-.89,2.81-1.99,3.45l-160.41,92.61c-1.1.63-2.88.63-3.98,0Z"/>
        <path class="cls-14" d="M217.44,5.62c-.14-1.03-.98-1.41-1.97-.83L55.06,97.4c-.55.31-1.04.86-1.41,1.48l-7.48-4.31c.37-.63.86-1.16,1.41-1.48L207.99.48c1.1-.63,2.89-.63,3.98,0l3.5,2.01c1,.58,1.84,1.93,1.97,3.13Z"/>
        <path class="cls-10" d="M54.72,360.72s-.08.04-.12.05c-.06.03-.13.06-.2.07l-.08.03c-.12.04-.24.06-.37.09h-.05c-.79.15-1.66.08-2.37-.19-.16-.06-.3-.13-.44-.2l-3.5-2.01c-1.09-.64-1.99-2.18-1.99-3.45V96.54c0-.63.22-1.34.58-1.97l7.48,4.31c-.37.63-.59,1.33-.59,1.97v258.56c0,.45.11.81.3,1.05.25.3.63.43,1.07.34.09-.02.18-.05.28-.08Z"/>
      </g>
      <g>
        <path class="cls-11" d="M167.36,48.08c-.09-.06-.19-.11-.29-.17l-3.31-1.9c-.77-.49-1.99-.96-3.86-1.37-.57-.13-1.09-.28-1.54-.42-.56-.19-1.04-.39-1.46-.6l.25-.3h0s-3.74-2.17-3.74-2.17h0c-.29-.16-.61-.29-.98-.39-1.41-.34-3.51.48-5.62.24-1.33-.15-2.67-.73-3.82-2.27-1.28-1.72-2.05-4.74-3.18-7.23l.98-1.45c-.1-.06-.2-.12-.31-.17l-3.43-1.99c-.55-.32-1.19-.52-1.91-.52-1,0-2.18.35-3.6,1.17-8.21,4.75-8.49,16.01-11.45,23.42-2.96,7.42-7.15,9.73-9.43,12.92-2.3,3.18-2.44,5.55-7.49,12.51-5.05,6.96-5.25,8.66-5.25,9.98v10.37l3.73,2.15,67.23-38.82-1.51-12.98ZM105.72,88.07c-.87.5-1.59-.17-1.59-1.53s.72-2.86,1.59-3.37c.87-.51,1.58.18,1.58,1.54s-.71,2.85-1.58,3.36ZM135.25,58.95c-2.21,1.28-4.14.55-5.18-1.58-2.6.51-4.54-2.01-4.54-6.34,0-5.1,2.69-10.77,6-12.68,2.21-1.28,4.14-.55,5.17,1.58,2.61-.52,4.54,2,4.54,6.34,0,5.1-2.68,10.77-5.99,12.68ZM157.57,58.12c-.87.51-1.58-.17-1.58-1.52s.71-2.85,1.58-3.36c.88-.51,1.59.17,1.59,1.53s-.71,2.84-1.59,3.35Z"/>
        <path class="cls-9" d="M105.37,89.92l-7.23-4.17c-.21.69-.24,1.18-.24,1.61v10.37l3.73,2.15,3.73-2.16v-7.81Z"/>
        <path class="cls-9" d="M112.85,76.98l3.74-8.63-5.94-3.48s0,0,0,0c-1.74,2.41-2.25,4.36-4.59,8.19l6.79,3.92Z"/>
        <path class="cls-9" d="M127.79,59.72l.48-2.51c-1.65-.69-2.75-2.92-2.75-6.17,0-4.33,1.94-9.06,4.55-11.57l-5.18-2.99c-2.21,5.03-3.02,10.96-4.83,15.47-.38.96-.78,1.83-1.2,2.63l8.92,5.15Z"/>
        <path class="cls-19" d="M167.36,48.08c-.09-.06-.19-.11-.29-.17-.77-.4-1.88-.77-3.45-1.12-2.98-.67-4.25-1.72-5.26-2.58-.41-.35-.78-.66-1.21-.9-.29-.17-.62-.31-1-.4-2.26-.54-6.38,1.92-9.34-1.91-.03-.04-.06-.08-.09-.12-2.07-2.79-2.82-9-5.92-10.83-.1-.06-.2-.12-.31-.17-1.28-.6-2.94-.49-5.22.82-8.21,4.75-8.49,16.01-11.45,23.42-2.96,7.42-7.15,9.73-9.43,12.92-2.3,3.18-2.43,5.55-7.49,12.51-5.05,6.96-5.24,8.66-5.24,9.98v10.38l67.23-38.82v-10.37c0-.86-.08-1.77-1.51-2.61ZM109.44,90.22c-.87.51-1.58-.17-1.58-1.53s.71-2.86,1.58-3.37c.88-.51,1.58.18,1.58,1.54s-.7,2.85-1.58,3.36ZM135.25,58.95c-2.21,1.28-4.14.55-5.18-1.58-.52-1.07-.82-2.48-.82-4.19,0-5.1,2.69-10.77,6-12.68.5-.29.98-.48,1.44-.57,2.61-.52,4.54,2,4.54,6.34,0,5.1-2.68,10.77-5.99,12.68ZM161.31,60.27c-.88.51-1.59-.17-1.59-1.52s.71-2.85,1.59-3.36c.87-.51,1.58.17,1.58,1.53s-.71,2.84-1.58,3.35Z"/>
        <path class="cls-12" d="M141.24,46.27c0,5.1-2.68,10.77-5.99,12.68-2.21,1.28-4.14.55-5.18-1.58.47-.09.95-.28,1.45-.57,3.31-1.91,5.99-7.59,5.99-12.68,0-1.7-.29-3.12-.82-4.18,2.61-.52,4.54,2,4.54,6.34Z"/>
        <path class="cls-12" d="M109.44,90.21c-.88.51-1.59-.17-1.59-1.52s.71-2.86,1.59-3.37c.88-.51,1.58.19,1.58,1.53s-.71,2.85-1.58,3.35"/>
        <path class="cls-12" d="M161.3,60.28c-.88.51-1.59-.17-1.59-1.52s.71-2.86,1.59-3.37c.88-.51,1.58.19,1.58,1.53s-.71,2.85-1.58,3.35"/>
      </g>
      <g>
        <path class="cls-20" d="M65.47,121.59L205.06,41c.66-.38,1.73-.38,2.39,0l1.35.78c.66.38,1.19,1.31,1.19,2.07v212.95c0,.76-.53,1.69-1.19,2.07l-139.58,80.59c-.66.38-1.73.38-2.39,0l-1.35-.78c-.66-.38-1.19-1.31-1.19-2.07V123.66c0-.76.53-1.69,1.19-2.07Z"/>
        <path class="cls-17" d="M209.94,43.48c-.15-.49-.61-.64-1.15-.33L69.21,123.74c-.33.19-.63.51-.85.89l-3.73-2.15c.21-.38.52-.71.85-.89L205.06,41c.65-.39,1.73-.39,2.38,0l1.35.77c.56.33,1.03,1.04,1.15,1.71Z"/>
        <path class="cls-4" d="M68.93,339.57c-.14.06-.29.09-.44.12-.07,0-.16.02-.23.03-.24.02-.49,0-.73-.03-.16-.03-.3-.06-.44-.12-.09-.04-.18-.08-.27-.13l-1.34-.77c-.66-.39-1.2-1.31-1.2-2.07V123.66c0-.39.13-.81.35-1.18l3.73,2.15c-.21.38-.35.8-.35,1.18v212.94c0,.65.39.97.91.82Z"/>
      </g>
      <g>
        <path class="cls-11" d="M178.54,71.16l-3.72-2.15c-.96-.55-2.22-.56-3.73.11-4.34,1.91-6.22,2.78-8.46,3.72-.51.21-1.04.42-1.62.65-.87.35-2.63.06-2.09-3.01l5.77-15.53s-.06-.03-.08-.05l-3.65-2.12c-.17-.1-.37-.17-.61-.21-.12-.02-.26-.04-.4-.04-2.36-.06-3.04-15.29-3.05-15.76h0s-.17-.1-.17-.1l-3.61-2.08c-.6-.35-1.3-.52-2.06-.52-1.01,0-2.16.31-3.42.97-5.67,2.98-11.41,11.81-12.8,19.74-.88,5-5.91,12.7-8.82,15.53-2.92,2.85-3.11,5.21-3.11,5.21l-2.26,12.82-.73,4.1c-.53,3.06-3.67,6.02-3.67,6.02l-11.71,8.77c-7.33,6.09-9.4,12.23-10.81,19.84,0,0,0,.05,0,.06-.05.27,0,.45.13.52.05.03.09.03.13,0h0s0,0,.02,0l1.5-.86,80.55-46.46c.32-.17.65-.68.74-1.12,0,0,0-.03.02-.04,0-.02,0-.02,0-.03.46-2.78,1.8-7.97,1.8-7.97-.02,0-.04-.02-.06-.03ZM155.25,47.62c-.86,4.87-4.38,10.31-7.87,12.14-2.41,1.26-4.17.48-4.76-1.74-1.07.33-1.97.19-2.64-.34-1.12-.88,9.14-18.5,9.98-18.11.75.34,1.28,1.07,1.55,2.11,2.88-.87,4.52,1.56,3.74,5.94Z"/>
        <path class="cls-9" d="M105.38,115.81l-5.87-3.39c-3.41,4.48-4.77,9.19-5.79,14.66,0,0,0,.05,0,.06-.05.27,0,.45.13.52.05.03.09.03.13,0h0s0,0,.02,0h.02s4.63-3.68,4.63-3.68l6.74-8.18Z"/>
        <path class="cls-9" d="M119.52,93.77l8.27,4.78,3.74-21.57-7.46-4.31c-1.07,1.68-1.17,2.85-1.17,2.85l-2.26,12.82-.73,4.1c-.08.45-.22.89-.39,1.33Z"/>
        <path class="cls-9" d="M138.75,44.48c-1.89,3.23-3.32,6.85-3.92,10.3-.38,2.14-1.52,4.78-2.93,7.32l7.1,4.1,3.53-8.15c-1.02.29-1.89.16-2.54-.36-.58-.45,1.86-5.33,4.47-9.91l-5.71-3.3Z"/>
        <path class="cls-19" d="M178.6,71.19s-.04-.02-.06-.03c-.96-.54-2.21-.54-3.72.12-5.33,2.35-6.94,3.12-10.09,4.37-.85.34-2.55.06-2.11-2.81,0-.06.02-.13.03-.19l.73-4.1,2.01-11.18s.46-1.76-.71-2.42c-.03-.02-.06-.03-.08-.05-.24-.12-.54-.19-.93-.2-1.12-.03-2.39-.8-3.33-2.12-1.08-1.51-1.72-3.73-1.25-6.39.85-4.79-.08-8.15-2.21-9.4-.06-.04-.11-.07-.17-.1-1.37-.73-3.21-.61-5.36.52-5.67,2.98-11.41,11.81-12.8,19.74-.88,5-5.91,12.7-8.82,15.53-2.92,2.85-3.11,5.21-3.11,5.21l-2.26,12.82-.73,4.1c-.53,3.06-3.68,6.02-3.68,6.02l-11.7,8.77c-5.5,4.57-8.11,9.36-9.63,14.58,0,0-4.39,3.4-4.66,3.68h0s0,.02,0,0h0s1.5-.86,1.5-.86l80.78-46.44s.93-.51,1.13-.63c.2-.12,3.46-3.2,3.46-3.2-.14-2.65-.91-4.53-2.26-5.34ZM155.25,47.62c-.86,4.87-4.38,10.31-7.87,12.14-2.41,1.26-4.17.48-4.76-1.74-.25-.99-.28-2.27,0-3.78.86-4.87,4.39-10.31,7.88-12.13.35-.18.69-.33,1.01-.43,2.88-.87,4.52,1.56,3.74,5.94Z"/>
        <path class="cls-12" d="M155.25,47.62c-.86,4.87-4.38,10.31-7.87,12.14-2.41,1.26-4.17.48-4.76-1.74.32-.1.66-.24,1.02-.42,3.5-1.83,7.02-7.27,7.87-12.14.27-1.51.25-2.79,0-3.78,2.88-.87,4.52,1.56,3.74,5.94Z"/>
        <path class="cls-12" d="M151.88,41.89h0c.75,0,1.3.27,1.68.81,1.45,2.06.06,7.3-.54,8.98-.84,2.34-6.25,7.81-7.75,7.81-1.32-.06-2.29-1.35-2.44-1.56-.24-1-.24-2.26,0-3.64.85-4.81,4.34-10.18,7.76-11.97.34-.18.66-.31.95-.41.11-.01.22-.02.33-.02M151.88,41.66c-.12,0-.24,0-.37.02-.32.1-.66.25-1.01.43-3.5,1.82-7.02,7.26-7.88,12.13-.27,1.51-.24,2.79,0,3.78,0,0,1.07,1.62,2.65,1.7.01,0,.02,0,.03,0,1.62,0,7.07-5.52,7.94-7.96.85-2.39,2.76-10.1-1.36-10.1h0Z"/>
        <path class="cls-12" d="M93.98,127.67l82.29-47.3s.93-.51,1.13-.63c.2-.12,3.46-3.21,3.46-3.21l-82.22,47.46s-4.98,3.86-4.65,3.69Z"/>
      </g>
      <g>
        <g>
          <path class="cls-4" d="M82.96,160.84v1.87c0,1.02.71,1.43,1.59.92l108.9-62.87c.88-.51,1.59-1.74,1.59-2.76v-1.88c0-1.02-.71-1.43-1.59-.92l-108.9,62.87c-.88.51-1.59,1.74-1.59,2.76Z"/>
          <path class="cls-4" d="M82.96,172.14v1.87c0,1.02.71,1.43,1.59.92l108.9-62.87c.88-.51,1.59-1.74,1.59-2.76v-1.88c0-1.02-.71-1.43-1.59-.92l-108.9,62.87c-.88.51-1.59,1.74-1.59,2.76Z"/>
          <path class="cls-4" d="M82.96,183.39v1.87c0,1.02.71,1.43,1.59.92l108.9-62.87c.88-.51,1.59-1.74,1.59-2.76v-1.88c0-1.02-.71-1.43-1.59-.92l-108.9,62.87c-.88.51-1.59,1.74-1.59,2.76Z"/>
        </g>
        <g>
          <path class="cls-4" d="M82.96,208.29v1.87c0,1.02.71,1.43,1.59.92l108.9-62.87c.88-.51,1.59-1.74,1.59-2.76v-1.88c0-1.02-.71-1.43-1.59-.92l-108.9,62.87c-.88.51-1.59,1.74-1.59,2.76Z"/>
          <path class="cls-4" d="M82.96,219.6v1.87c0,1.02.71,1.43,1.59.92l108.9-62.87c.88-.51,1.59-1.74,1.59-2.76v-1.88c0-1.02-.71-1.43-1.59-.92l-108.9,62.87c-.88.51-1.59,1.74-1.59,2.76Z"/>
          <path class="cls-4" d="M82.96,230.84v1.87c0,1.02.71,1.43,1.59.92l108.9-62.87c.88-.51,1.59-1.74,1.59-2.76v-1.88c0-1.02-.71-1.43-1.59-.92l-108.9,62.87c-.88.51-1.59,1.74-1.59,2.76Z"/>
        </g>
        <g>
          <path class="cls-4" d="M82.96,255.75v1.87c0,1.02.71,1.43,1.59.92l108.9-62.87c.88-.51,1.59-1.74,1.59-2.76v-1.88c0-1.02-.71-1.43-1.59-.92l-108.9,62.87c-.88.51-1.59,1.74-1.59,2.76Z"/>
          <path class="cls-4" d="M82.96,267.06v1.87c0,1.02.71,1.43,1.59.92l108.9-62.87c.88-.51,1.59-1.74,1.59-2.76v-1.88c0-1.02-.71-1.43-1.59-.92l-108.9,62.87c-.88.51-1.59,1.74-1.59,2.76Z"/>
          <path class="cls-4" d="M82.96,278.3v1.87c0,1.02.71,1.43,1.59.92l108.9-62.87c.88-.51,1.59-1.74,1.59-2.76v-1.88c0-1.02-.71-1.43-1.59-.92l-108.9,62.87c-.88.51-1.59,1.74-1.59,2.76Z"/>
        </g>
      </g>
      <polygon class="cls-4" points="139 279.81 195.04 247.46 195.04 248.54 139 280.89 139 279.81"/>
      <path class="cls-11" d="M152.04,263.01c2.33-1.56,4.93-4.19,4.51-7.31-.26-1.89-1.79-2.61-3.53-1.95-3.41,1.31-5.57,6.44-6.76,9.54-1.04,2.71-2.36,7.82,1.7,8.68,4.78,1.02,8.47-5.99,9.54-9.64.15-.51-.68-.79-.91-.33-.43.83-3.24,6.3-.15,5.62,1.1-.24,1.74-1.95,2.13-2.82.71-1.56,1.06-3.73,2.16-5.07-.27-.12-.54-.25-.81-.37.05,1.44.04,2.42.96,3.54.15.18.48.31.68.12,1.58-1.47,1.69-3.86,3.43-5.19-.24-.11-.47-.22-.71-.34-.02.46-.2,1.77-.24,2.38-.02.29.39.47.62.39.57-.21.72-.31.99-.86-.25-.09-.51-.18-.76-.28.66,3.52,3.67.02,4.7-1.34,3.04-4.01,5.14-8.29,5.22-13.42,0-.41-.77-.62-.78-.12-.07,3.94-1.79,7.55-2.9,11.26-1.2,4.02-2.18,8.1-2.97,12.22.24.09.48.17.71.26.07-2.94,1.12-5.72,2.2-8.42.91-2.28,1.94-4.63,3.78-6.32-.22-.08-.44-.17-.66-.25.49,2.04-.36,4.22-1.6,5.82-.21.27.26.77.47.51,1.1-1.38,2.91-1.82,4.09-3.16,1.22-1.39,1.97-3.2,2.95-4.76-.18-.09-.36-.18-.54-.27-.07,3.36,3.1-1.88,3.53-2.44-.17-.07-.35-.13-.52-.2.21.69.5,1.15,1.28,1.16,1.55.01,2.13-2.26,3.3-2.52.01,0,.52.44.69.45.71.06,1.22.01,1.87-.35,1.32-.74,2.34-2.12,3.06-3.42.18-.32-.43-.72-.64-.37-.76,1.3-3.17,4.75-4.91,3.06-.1-.1-.34-.19-.45-.05-.47.58-3.16,3.66-3.66,2.03-.06-.2-.35-.42-.52-.2-.41.54-.74,1.14-1.11,1.71-.21.31-1.39,2.28-1.34,1.28.01-.24-.38-.52-.54-.27-1.09,1.67-1.89,3.87-3.41,5.22-1.13,1.01-2.62,1.39-3.59,2.59.16.17.31.34.47.51,1.37-1.75,2.36-4.08,1.83-6.32-.07-.28-.43-.45-.66-.25-1.87,1.72-2.93,4.14-3.85,6.46-1.1,2.76-2.17,5.59-2.24,8.59,0,.31.64.66.71.26.86-4.44,1.93-8.85,3.29-13.16,1.1-3.48,2.59-6.83,2.66-10.53-.26-.04-.52-.08-.78-.12-.06,4.01-1.3,7.35-3.47,10.69-.57.87-1.16,1.74-1.79,2.57-.28.37-2.76,3.61-3.08,1.72-.05-.27-.58-.65-.76-.28-.24.21-.48.42-.72.64.21.13.42.26.62.39.05-.81.21-1.58.24-2.39.01-.32-.48-.51-.71-.34-1.77,1.35-1.89,3.74-3.49,5.21.23.04.45.08.68.12-.55-.96-.8-1.96-.75-3.01,0-.35-.54-.69-.81-.37-1.22,1.46-1.6,3.79-2.4,5.49-.44.93-2.04,3.41-1.49.76.22-1.07.9-2.14,1.4-3.1-.3-.11-.61-.22-.91-.33-.94,3.18-3.45,8.01-6.88,9.04-4.38,1.31-3.62-4.12-2.82-6.53.93-2.78,2.38-5.5,4.18-7.82.35-.45.71-.92,1.13-1.3.89-.81,1.16-.96,2.4-.3,1.3.7,1.3,1.11.96,2.44-.17.66-.47,1.32-.82,1.89-.75,1.24-1.82,2.24-2.94,3.14-.16.13.07.56.25.43h0Z"/>
    </g>
  </g>
  <g id="Characters">
    <g id="Characters-2" data-name="Characters">
      <g>
        <g>
          <path class="cls-1" d="M286.38,200.62c-3.62-.86-7.6,1.72-9.94,7.41-2.33,5.69-6.99,20.19-7.96,23.99-.43,1.7,12.48,16.77,12.02,16.54-.14-.07,4.21-7.35,4.21-7.35l-6.27-9.65,3.93-10.48,4.01-20.47Z"/>
          <g>
            <path class="cls-12" d="M278.03,335.43c-.49.19-.61,1.12-.69,2.98-.06,1.41-.36,3.86,1.29,4.35s4.06.24,5.12-1.09c1.32-1.65,2.21-3.11,4.09-5.13,1.63-1.75,3.4-3.39,4.06-5.84.6-2.22.1-3.18-1.41-3.83-2.08-.89-5.35,2.01-6.99,2.47-1.41.39-4.97,5.9-5.46,6.09Z"/>
            <path class="cls-1" d="M278.03,333.71v2.28s2.37,1.82,5.77.16c.1-.22.6-3.26.6-3.26l-6.37.83Z"/>
            <path class="cls-12" d="M295.02,347.56s-.65,1.99-1.01,3.72c-.28,1.38-.68,3.69-.2,4.72.48,1.04,2.37,1.71,5.29,1.69,1.89-.01,4.84,1.27,6.86,2.4,2.09,1.16,4.35,1.17,6.56.91,2.6-.31,5.29-1.81,5.71-2.89.42-1.08-.12-1.59-6.25-4.2-.06-.02-6.46-2.92-9.43-6.19l-7.54-.15Z"/>
            <path class="cls-1" d="M295.02,345.09s0,1.69,0,2.66c0,.97,1.13,2.41,4.09,2.3,2.08-.07,3.53-.63,3.45-2.34v-2.47l-7.54-.15Z"/>
            <path class="cls-5" d="M275.79,302.06c1.04-7.46,2.79-11.74,2.79-11.74,0,0-1.29-10.1-2.03-19.8-1.34-17.38-.26-23.07,3.16-30.87,0,0,29.17-2.96,30.06,9.17,1.11,15.1-.36,44.28-.76,49.61-.4,5.33-.9,7.74-2.78,18.88-1.44,8.48-3.65,27.92-3.65,27.92-3.87,2.09-7.54-.15-7.54-.15,0,0-2.39-24.28-2.13-30.43.31-7.52,2.33-13.43,2.33-13.43,0,0-1.81-24.61-2.34-28.52,0,0-.91,7.81-1.31,13.14-.4,5.33-1.98,10.43-3.53,20.34-1.34,8.59-3.83,27.8-3.83,27.8-3.87,2.09-6.18-.27-6.18-.27,0,0-3.29-24.18-2.25-31.64Z"/>
            <g class="cls-22">
              <path class="cls-6" d="M275.79,302.06c1.04-7.46,2.79-11.74,2.79-11.74,0,0-1.29-10.1-2.03-19.8-1.34-17.38-.26-23.07,3.16-30.87,0,0,29.17-2.96,30.06,9.17,1.11,15.1-.36,44.28-.76,49.61-.4,5.33-.9,7.74-2.78,18.88-1.44,8.48-3.65,27.92-3.65,27.92-3.87,2.09-7.54-.15-7.54-.15,0,0-2.39-24.28-2.13-30.43.31-7.52,2.33-13.43,2.33-13.43,0,0-1.81-24.61-2.34-28.52,0,0-.91,7.81-1.31,13.14-.4,5.33-1.98,10.43-3.53,20.34-1.34,8.59-3.83,27.8-3.83,27.8-3.87,2.09-6.18-.27-6.18-.27,0,0-3.29-24.18-2.25-31.64Z"/>
            </g>
          </g>
          <polygon class="cls-1" points="301.33 196.7 299.96 207.97 290.04 207.08 291.18 194.56 301.33 196.7"/>
          <path class="cls-15" d="M279.17,206.27c1.09-2.97,4.79-6.27,8.61-5.56.99.18,1.87.33,2.8.52.09,2.6,4.98,3.94,9.86,2.37,1.47.42,2.81.85,4.03,1.28,3.49,1.25,4.89,7.04,4.97,16.73.08,9.69,1.11,33.87,1.11,33.87l-4.08,1.28-1.91-7.07-.77,8.47c-4.42,1.11-9.05,1.03-14.08-.07-10.48-2.29-13.75-7.95-13.75-7.95,0,0,1.29-8.78,7.48-18.33-5.25-13.98-5.88-21.16-4.26-25.56Z"/>
          <g>
            <path class="cls-12" d="M308.69,182.38s2.08-3.95-.75-8.38c-3.33-5.22-9.74-6.12-17.34-4.08-3.77,1.01-9.04,5.01-9.51,12.24-.36,5.57,15.18,9.69,14.83,13.5l12.77-13.29Z"/>
            <path class="cls-2" d="M309.03,184.5s2.11,3.38,1.81,3.73c-.3.34-1.7.68-1.7.68l-.11-4.41Z"/>
            <path class="cls-1" d="M302.59,173.78c2.11,1.16,5.75,3.3,6.48,11.2.76,8.11-1.12,10.87-2.25,11.9-.76.69-4.61.85-6.59.18-2.48-.85-7.84-3.67-10.27-7.91-2.86-4.99-3.3-11.55.22-14.02,4.96-3.48,10.62-2.33,12.4-1.34Z"/>
            <path class="cls-12" d="M303.21,174.14s1.66,7.42-.69,12.02c0,0-1.23-2.91-3.72-2.15-2.51.76-2.37,4.09-.46,5.84,1.91,1.75,3.84.92,3.84.92,0,0-1.14,3.13-3.71,5.6,0,0-7.39,3.29-13.79-3.93-5.8-6.55-4.73-17.98,4.16-20.67,8.89-2.69,14.37,2.37,14.37,2.37Z"/>
            <path class="cls-12" d="M282.15,174.9c.73.63.81,1.73.18,2.46l-2.64-2.27c.63-.73,1.73-.81,2.46-.18Z"/>
          </g>
        </g>
        <path class="cls-1" d="M329.54,222.74c1.44-1.64,1.99-5.3,3.91-7.8,1.87-2.44,2.62-4.33,3.37-3.24,1,1.45-1.26,4.34-.76,4.63.5.29,2.38,4.1,2.57,6.22.19,2.12-5.42,7.44-5.42,7.44l-3.67-7.25Z"/>
        <path class="cls-1" d="M335.91,216s6.78-.59,7.77-.02c.99.57.69,3.52,0,5.32-.69,1.8-4.15,2.97-7.36,5.15,0-.31-.41-10.45-.41-10.45Z"/>
        <path class="cls-1" d="M303.59,204.58c2.91,1.01,5.46,2.19,8.18,7.3,3.49,6.57,9.85,19.43,9.85,19.43l7.92-8.57s1.15-1.62,3.3,1.92c2.14,3.54,1.2,4.52,1.2,4.52,0,0-9.21,12.34-10.9,13.91-1.69,1.57-4.47.35-6.28-2.12-1.81-2.47-13.26-16.78-13.26-16.78,0,0-6.25-8.22,0-19.6Z"/>
        <path class="cls-3" d="M292.88,272.7l-.55-5.9s-4.28-.41-8.9-3.37c0,0,1.89,3.04,7.1,4.42l.54,7.5.32,12.3,1.49-14.95Z"/>
        <path class="cls-12" d="M272.11,203.01h0c5.67,0,10.26-4.59,10.26-10.26v-15.59h0c-5.07-1.64-10.26,2.14-10.26,7.46v18.38Z"/>
        <path class="cls-4" d="M309.66,231.79s-5.69-7.34-7.51-10.29l7.7,16.28-.2-5.99Z"/>
      </g>
      <g>
        <path class="cls-13" d="M359.55,171.52c-2.16,6.36-6.77,25.36-6.77,25.36,0,0-8.8,11.7-11.21,13.92-1.34,1.24-4.38,3.47-4.38,3.47l2.52,1.86s4.21-1.28,4.55,1.03c4.7-3.71,9.88-8.7,12.4-11.4.96-1.03,1.64-2.29,1.96-3.66l3.77-16.15s-.02-13,1.99-14.7c2.02-1.71,1.21-5.55,1.21-5.55-1.35.04-4.35.83-6.05,5.83Z"/>
        <g>
          <path class="cls-5" d="M365.7,165.06s1.12,3.16,2.22,5.03c.88,1.51-5.85,28.66-6.3,30.68-.45,2.02-13.5,13.79-13.5,13.79,0,0-3.31-1.07-5.22-5.24l9.42-12.25s2.92-12.87,4.47-18.76c1.55-5.89,3.18-12.6,8.91-13.24Z"/>
          <path class="cls-8" d="M365.7,165.06s1.12,3.16,2.22,5.03c.88,1.51-5.85,28.66-6.3,30.68-.45,2.02-13.5,13.79-13.5,13.79,0,0-3.31-1.07-5.22-5.24l9.42-12.25s2.92-12.87,4.47-18.76c1.55-5.89,3.18-12.6,8.91-13.24Z"/>
          <g>
            <g>
              <rect class="cls-13" x="386.76" y="292.65" width="6.5" height="11.14"/>
              <polygon class="cls-13" points="366.66 295.35 360.16 295.57 359.83 283.79 366.66 283.57 366.66 295.35"/>
              <path class="cls-19" d="M392.35,213.16c0,6.21.43,42.33.43,42.33.15,1.79,1.87,4.97,2.01,11.4.19,9.34-1.24,31.33-1.24,31.33,0,0-3.16,1.85-7.24.14,0,0-5.11-31.11-6.27-40.35-1.02-8.07-4.53-29.6-4.53-29.6l-4.97,27.26s1.2,4.81.81,10.34c-.3,4.27-4.26,25.69-4.26,25.69,0,0-3.06,2.08-7.51.57,0,0-.39-33.61-.46-37.53-.09-4.47,1.86-42.93,1.86-42.93l31.39,1.34Z"/>
              <path class="cls-12" d="M386.76,300.57s0-.93,0-.93c-.35,0-.56.34-.7,1.18-.1.6-.18,1.05-.38,1.84-.3,1.2-.57,1.94-1.14,3.33-.92,2.27-1.69,3.11-3.8,5.76-.5.63-1.63,1.63-2.02,2.33-.39.7-.53,2.65.14,3.09,2.46,1.64,6.19,1.68,8.82.91,2.03-.59,3.49-2.22,3.83-4.3.1-.6.06-1.21.13-1.82.16-1.38.85-2.63,1.63-3.78.45-.66.95-1.31,1.25-2.06.55-1.34.11-2.84-.24-4.17-.3-1.15-.63-2.41-1.02-2.31,0,.14,0,.71,0,.71-.47.52-1.78,1.04-3.25,1.1-.95.04-3.26-.15-3.25-.88Z"/>
              <path class="cls-12" d="M360.09,293.57c-.34.01-.61.49-1.36,1.29-.9.97-2.37,2.03-3.83,2.75-2.44,1.22-7.17,3.1-9.31,4.06-1.34.6-1.28,2.22.11,3.14,1.38.92,4.73,1.58,8.74.69,2.19-.49,5.03-2.51,6.83-2.4,1.8.11,5.17.08,6.5-.83,1.33-.92.8-2.87.42-4.55-.41-1.84-.92-4.7-1.53-4.57v.63c-.78,1.18-4.82,1.67-6.54.79l-.03-1Z"/>
              <path class="cls-12" d="M375.5,228.42s-5.2-1.46-9.06-5.19c0,0,1.75,3.27,6.95,6.32l-2.51,24.25,4.63-25.37Z"/>
            </g>
            <g>
              <path class="cls-20" d="M381.07,165.5c2.21.53,6.67,1.26,7.67,5.67,1.2,5.3,1.59,16.83,1.59,16.83l.41,25.66c-4.48,3.26-20.93,5.04-30.36-1.85,0,0,1.15-30.81,1.15-35.6s2.66-10.56,10.02-10.98l9.51.28Z"/>
              <path class="cls-5" d="M371.67,164.73s-3.31,2.63-4.2,6.51c-.9,3.88-1.04,47.21-1.04,47.21,0,0-4.6-.85-6.75-2.54,0,0,.28-34.2.72-39.86.66-8.58.59-11.05,11.27-11.95v.64Z"/>
              <path class="cls-5" d="M383.01,164.09s-6.13,3.77-6.2,18.78c-.06,12.97-.49,35.57-.49,35.57,0,0,10.15,1.49,16.58-2.35,0,0,.77-31.46.64-36.33-.14-5.58-1.45-12.79-3.23-13.51-3.26-1.31-7.3-2.16-7.3-2.16Z"/>
              <g>
                <path class="cls-13" d="M405.81,198.55c-6.1-24.94-10.61-33.26-18.03-33.17-2.16,2.59-1.57,10.4,1.85,15.14,0,0,7.63,16.09,8.84,21.81,1.07,5.02,2.28,11.35,2.2,15.66-.01.77-.33,1.49-.85,2.05-1.39,1.51-1.4,2.72-2.3,4.39-.71,1.31-1.48,1.8-1.26,2.09.28.38,1.18.87,2.29.17.56-.35.92-.77,1.73-1.66,0,0-.22,2.02-1.38,4.63-1.56,3.53-1.18,5.33,3.58,4.07,2.99-.79,4.86-3.27,5.31-10.45.13-2.07.32-5.33.08-7.94-.64-6.8-1.1-12.79-2.08-16.8Z"/>
                <path class="cls-5" d="M386.51,164.98s4.91-.22,7.57,2.47c2.66,2.69,6.25,8.35,9.73,20.73s4.54,21.41,4.72,28.37c0,0-4.36,2.03-8.38-.29,0,0-1.78-10.77-3.36-16.49-1.58-5.73-7.47-17.8-7.47-17.8,0,0-5.63-8.37-2.81-16.98Z"/>
                <path class="cls-8" d="M386.51,164.98s4.91-.22,7.57,2.47c2.66,2.69,6.25,8.35,9.73,20.73s4.54,21.41,4.72,28.37c0,0-4.36,2.03-8.38-.29,0,0-1.78-10.77-3.36-16.49-1.58-5.73-7.47-17.8-7.47-17.8,0,0-5.63-8.37-2.81-16.98Z"/>
              </g>
              <polygon class="cls-8" points="383.69 172.29 380.89 175.77 382.29 179.72 378.6 189.18 383.05 179.72 381.49 175.99 383.69 172.29"/>
              <polygon class="cls-8" points="363.89 171.18 364.5 174.77 362.07 177.93 365.45 188.58 362.84 178.05 365.08 175.09 363.89 171.18"/>
            </g>
            <g>
              <g>
                <circle class="cls-12" cx="370.54" cy="144.12" r="8.94" transform="translate(168.93 486.79) rotate(-80.78)"/>
                <path class="cls-12" d="M386,150.48s-1.45,6.81-2.03,7.92c-.58,1.12-1.78,1.44-1.78,1.44l.1-4.79,3.71-4.57Z"/>
                <path class="cls-12" d="M384.18,140.73s1.56-.27,2.78.98c1.19,1.22.53,5.04-.96,8.77l-2.73.31.91-10.06Z"/>
                <path class="cls-13" d="M382.45,150.79c.55.33,1.33-.72,2-1.43.67-.71,2.88-1.67,3.98.64,1.12,2.36-.97,5.48-2.7,6.02-2.99.94-3.44-.98-3.44-.98l-.22,11.11h0c-2.07,2.65-6.71,5.76-9.21,5.32-1.99-.35-2.43-3.72-.52-5.93v-3.28s-2.7.41-4.02.21c-2.2-.34-3.58-2.07-4.25-4.45-1.07-3.82-1.48-6.91-.57-14.42,1-8.24,10.58-8.32,15.75-5.07s3.2,12.26,3.2,12.26Z"/>
                <path class="cls-12" d="M382.45,151.71c.28,0,1.32-1.73,2-2.35.94-.86-.27-8.63-.27-8.63,0,0,1.17-2.2-.65-4.2-1.29-1.42-3.1-3.16-8.96-2.47-4.18.49-8.73,1.8-12.41,0-.55,2.29-.11,4.84,2.18,6.65,0,0,1.33.86,4.83,1.28,3.5.43,8.95-.08,9.7-.18,1.02-.14,1.23.85,1.78,3.53.48,2.36.88,6.36,1.8,6.38Z"/>
                <path class="cls-12" d="M384.17,141.33l3.31-1.78c-.47-.95-1.59-1.32-2.5-.83-.91.49-1.27,1.66-.8,2.6Z"/>
                <path class="cls-16" d="M372.34,162.26s4.91-.99,6.62-1.9c1.15-.61,2.09-1.67,2.37-2.35,0,0-.32,1.46-1.35,2.77-1.25,1.6-7.65,2.78-7.65,2.78v-1.31Z"/>
              </g>
              <g>
                <path class="cls-12" d="M373.52,149.57c0,.56.44,1.02.98,1.02.54,0,.98-.46.98-1.02s-.44-1.02-.98-1.02c-.54,0-.98.46-.98,1.02Z"/>
                <path class="cls-12" d="M374.57,145.86l2.1,1.16c.31-.6.09-1.35-.49-1.67-.58-.32-1.3-.09-1.61.51Z"/>
                <path class="cls-16" d="M372.79,156.36l-2.24.84c.22.64.9.98,1.52.74.62-.23.94-.94.72-1.59Z"/>
                <path class="cls-12" d="M364.76,146.67l1.92-1.48c-.39-.55-1.14-.66-1.67-.26-.53.41-.64,1.18-.25,1.73Z"/>
                <path class="cls-12" d="M365.35,149.29c0,.56.44,1.02.98,1.02.54,0,.98-.46.98-1.02s-.44-1.02-.98-1.02c-.54,0-.98.46-.98,1.02Z"/>
                <polygon class="cls-16" points="370.35 148.35 370.03 154.27 366.94 153.22 370.35 148.35"/>
              </g>
              <g>
                <path class="cls-5" d="M369.29,170.8c.6,1.43,1.72,2.02,3.73,2.24,2.02.23,4.47-.77,5.58-1.94l-2.51-2.5-3.18,2.4-.27-2.67-3.35,2.47Z"/>
                <path class="cls-8" d="M369.29,170.8c.6,1.43,1.72,2.02,3.73,2.24,2.02.23,4.47-.77,5.58-1.94l-2.51-2.5-3.18,2.4-.27-2.67-3.35,2.47Z"/>
                <g>
                  <path class="cls-5" d="M370.87,170.02s-.5,1.38-.33,2.69c.18,1.39.9,2.24.9,2.24,0,0,.8.64,2.17.24,1.07-.99,2.15-2.57,2.06-4.49l-2.75.31-2.04-.98Z"/>
                  <path class="cls-5" d="M371.43,174.94s-3.26,18.02-3.4,19.47c-.13,1.45,1.88,6.62,3.12,6.66,1.24.04,3.69-4.63,3.73-5.96.04-1.32-1.28-19.95-1.28-19.95l-2.17-.24Z"/>
                  <path class="cls-8" d="M373.6,175.18s-1.11.55-2.17-.24l-.05.28s.91.83,2.25.45l-.03-.5Z"/>
                </g>
                <g>
                  <path class="cls-4" d="M372.91,171l9.2-7.01.04-2.08s2.14.81,2.62,4.59c-1.31,3.04-3.69,5.64-7.17,7.63l-1.93-3.44-2.75.31Z"/>
                  <path class="cls-4" d="M372.34,162.87s-2.04.3-2.97,1.82c-.92,1.52-.71,7.32-.71,7.32l2.2-2,2.04.98c-.2-1.93-.57-5.45-.57-5.45v-2.68Z"/>
                </g>
              </g>
            </g>
          </g>
        </g>
        <g>
          <path class="cls-13" d="M336.45,226.52c.92-1.34,1.2-2.22,1.46-4.11.26-1.89,5.44-3.92,5.6-2.51.16,1.41.64,2.58-.96,4.29s-3.73,3.6-6.1,2.33Z"/>
          <path class="cls-13" d="M336.68,214.31c-1.24,1.6-2.01,4.71-2.66,5.76s-1.44,1.96,0,2.16c1.44.2,3.53-2.61,4.31-4.31.39-.85.91-1.39,1.34-1.72s.75-.44.75-.44c-.68-.23-.32-2.93-.8-3.3,0,0-2.44,1-2.95,1.86Z"/>
        </g>
      </g>
    </g>
  </g>
</svg>