<?xml version="1.0" encoding="UTF-8"?>
<svg xmlns="http://www.w3.org/2000/svg" viewBox="0 0 466.69 438.97">
  <defs>
    <style>
      .cls-1, .cls-2, .cls-3, .cls-4, .cls-5, .cls-6, .cls-7, .cls-8, .cls-9, .cls-10, .cls-11, .cls-12, .cls-13, .cls-14, .cls-15, .cls-16, .cls-17, .cls-18 {
        stroke-width: 0px;
      }

      .cls-1, .cls-4, .cls-7, .cls-8, .cls-13 {
        fill: #000;
      }

      .cls-1, .cls-12 {
        opacity: .4;
      }

      .cls-2 {
        fill: #e0e0e0;
      }

      .cls-3 {
        fill: #27debf;
      }

      .cls-5 {
        opacity: .6;
      }

      .cls-5, .cls-6, .cls-12, .cls-16 {
        fill: #fff;
      }

      .cls-6 {
        opacity: .3;
      }

      .cls-7 {
        opacity: .1;
      }

      .cls-8 {
        opacity: .15;
      }

      .cls-9 {
        fill: #455a64;
      }

      .cls-10 {
        fill: #263238;
      }

      .cls-11 {
        fill: #ffa8a7;
      }

      .cls-19 {
        opacity: .2;
      }

      .cls-13 {
        opacity: .25;
      }

      .cls-14 {
        fill: #f0f0f0;
      }

      .cls-15 {
        fill: #f28f8f;
      }

      .cls-17 {
        fill: #37474f;
      }

      .cls-18 {
        fill: #f5f5f5;
      }
    </style>
  </defs>
  <g id="Floor">
    <path id="Floor-2" data-name="Floor" class="cls-18" d="M398.35,216.3c91.13,50.94,91.13,133.53,0,184.47-91.13,50.94-238.88,50.94-330,0-91.13-50.94-91.13-133.53,0-184.47,91.13-50.94,238.88-50.94,330,0Z"/>
  </g>
  <g id="Shadows">
    <path id="Shadow" class="cls-2" d="M421.16,298.94c24.13,13.93,24.13,36.51,0,50.44-24.13,13.93-63.24,13.93-87.37,0-24.13-13.93-24.13-36.51,0-50.44,24.13-13.93,63.24-13.93,87.37,0Z"/>
    <path id="Shadow-2" data-name="Shadow" class="cls-2" d="M134.66,291.9c24.13,13.93,24.13,36.51,0,50.44-24.13,13.93-63.24,13.93-87.37,0-24.13-13.93-24.13-36.51,0-50.44,24.13-13.93,63.24-13.93,87.37,0Z"/>
  </g>
  <g id="Plants">
    <g id="Plants-2" data-name="Plants">
      <g>
        <path class="cls-3" d="M407.88,291.34s-.77-14.06,4.29-25.93c5.05-11.87,13.35-20.14,22.03-22.33s17.15,4.71,8.68,11.86c-8.47,7.15-24.24,15.65-28.42,37.74l-6.58-1.35Z"/>
        <path class="cls-8" d="M407.88,291.34s-.77-14.06,4.29-25.93c5.05-11.87,13.35-20.14,22.03-22.33s17.15,4.71,8.68,11.86c-8.47,7.15-24.24,15.65-28.42,37.74l-6.58-1.35Z"/>
        <path class="cls-16" d="M409.86,287.32s-.07,0-.1-.01c-.26-.06-.42-.31-.36-.57,5.42-24.44,21.48-36.97,29.21-40.19.24-.1.52.01.62.26.1.24-.01.52-.26.62-7.58,3.15-23.32,15.46-28.65,39.51-.05.22-.25.38-.47.37Z"/>
      </g>
      <g>
        <path class="cls-3" d="M411.24,298.91c-.14-1.13-.24-2.26-.39-3.39-.11-.81-.41-1.53-.5-2.35-.2-1.8-.22-3.73.7-5.35.74-1.3,1.87-2.31,2.98-3.3,1.11-.99,2.24-2.01,2.98-3.31.48-.85.77-1.8,1.19-2.68,1.4-2.92,4.33-5.01,7.52-5.51,1.69-.27,3.19-.23,4.86.17,1.79.43,3.64.99,5.5.69,2.73-.44,5.33-1.47,8.15-1.6,2.95-.13,6.07.77,8.03,3.09,1.1,1.3,1.76,3.11,1.25,4.74-.56,1.79-2.33,2.89-3.98,3.79-1.65.89-3.45,1.86-4.2,3.58-1.52,3.47,2.1,7.71.44,11.11-.7,1.43-2.2,2.31-3.73,2.76-1.26.39-2.58.54-3.88.79-.63.06-1.26.08-1.88.07-1.83-.06-3.79.08-5.33,1.19-2.43,1.75-2.85,5.11-4.14,7.81-1.54,3.24-4.66,5.59-8.11,6.47-2.9.72-7.38.56-8.28-.65-.69-.92.69-4.1.6-5.25-.24-2.94-.2-5.91.12-8.85.15-1.43.28-2.6.11-4.03Z"/>
        <path class="cls-16" d="M412,309.47s-.02,0-.03,0c-.23-.03-.39-.25-.36-.48,3.91-26.31,30.4-33.06,36.75-33.32.23,0,.43.17.44.41,0,.23-.17.43-.41.44-6.21.25-32.12,6.85-35.94,32.6-.03.22-.23.37-.45.36Z"/>
        <path class="cls-16" d="M440.43,293.13c-.08,0-.17-.04-.24-.09-.08-.06-7.71-6.05-18.9-3.08-.23.06-.46-.07-.52-.3-.06-.23.08-.46.3-.52,11.62-3.08,19.57,3.18,19.65,3.24.18.15.21.41.06.59-.09.11-.23.17-.36.16Z"/>
      </g>
    </g>
    <g id="Plants-3" data-name="Plants">
      <g>
        <path class="cls-3" d="M60.27,271.65l4.88-12.5s4.44-16.53-6.91-36.71c-6.89-12.25-16.58-9.93-20.19-5.6-3.61,4.33-4.34,12.4,2.95,22.49,11.4,15.8,18.38,37.26,16.04,50.16l3.23-17.83Z"/>
        <path class="cls-8" d="M60.27,271.65l4.88-12.5s4.44-16.53-6.91-36.71c-6.89-12.25-16.58-9.93-20.19-5.6-3.61,4.33-4.34,12.4,2.95,22.49,11.4,15.8,18.38,37.26,16.04,50.16l3.23-17.83Z"/>
        <path class="cls-16" d="M60.95,267.9c-.28-.05-.49-.3-.49-.59.41-26.66-16.07-48-16.24-48.21-.2-.26-.16-.63.1-.83.26-.2.63-.15.83.1.17.22,16.91,21.87,16.49,48.96,0,.33-.27.59-.6.58-.03,0-.07,0-.1,0Z"/>
      </g>
      <g>
        <path class="cls-3" d="M62.26,275.12c-.3-1.51-1.04-2.93-2.3-3.78-.95-.65-2.15-.95-2.93-1.8-1.22-1.3-1-3.33-.86-5.11.15-1.79.15-3.6.01-5.4-.1-1.3-.3-2.64-.99-3.74-1.12-1.77-3.3-2.56-5.38-2.8-2.08-.24-4.2-.04-6.26-.4-3.49-.61-6.23-2.73-8.99-4.8-2.6-1.95-5.42-3.49-8.77-2.83-4.13.81-5.29,4.54-4.6,8.29.35,1.93,1.1,3.76,2.05,5.46,1.02,1.83,2.31,3.21,1.62,5.47-.5,1.65-1.61,3.05-2.21,4.67-.98,2.66-.47,5.72.94,8.18s3.62,4.37,6.04,5.86c1.79,1.1,3.91,2.25,4.35,4.3.22,1.06-.06,2.14-.18,3.21-.4,3.53,1.06,7.12,3.47,9.72,2.42,2.6,5.71,4.27,9.14,5.18,2.94.78,6.11,1.02,9,.06,4.95-1.65,5-8.3,3.78-12.5-1.62-5.65,3.17-10.07,3.24-15.62,0-.54-.04-1.09-.15-1.63Z"/>
        <path class="cls-16" d="M54.6,298.4c-.18-.03-.33-.18-.36-.38-4.26-29.45-23.35-44.52-23.54-44.67-.2-.15-.23-.43-.08-.63.15-.2.43-.23.63-.08.2.15,19.57,15.43,23.88,45.25.04.24-.13.47-.38.51-.05,0-.1,0-.15,0Z"/>
        <path class="cls-16" d="M48.08,276.77s-.06-.02-.1-.03c-5.84-2.51-15.74-3.55-15.84-3.56-.25-.03-.43-.24-.4-.49.03-.25.25-.43.49-.4.41.04,10.14,1.06,16.1,3.63.23.1.33.36.23.59-.08.2-.29.3-.49.26Z"/>
        <path class="cls-16" d="M45.32,271.09s-.02,0-.02,0c-.24-.06-.39-.3-.33-.54,1.17-4.84,3.56-8.76,3.66-8.93.13-.21.41-.28.62-.15.21.13.28.41.15.62-.02.04-2.42,3.97-3.56,8.67-.06.23-.28.38-.52.34Z"/>
      </g>
    </g>
  </g>
  <g id="Chart">
    <g id="Chart-2" data-name="Chart">
      <g>
        <polygon class="cls-10" points="299.23 143.28 284.75 132.34 254.14 87.16 268.61 98.11 299.23 143.28"/>
        <path class="cls-17" d="M299.23,143.28l-30.61-45.17,54.53-49.62c4.78,28.56-4.41,64.97-23.92,94.79Z"/>
        <polygon class="cls-9" points="268.62 98.11 254.14 87.16 308.68 37.55 323.15 48.49 268.62 98.11"/>
      </g>
      <g>
        <path class="cls-3" d="M292.07,5.97c1.34.99,14.12,10.68,14.92,11.28-3.5-2.68-7.46-4.55-11.83-5.53-13.77-3.08-29.93,3.03-45.52,17.21-12.62,11.47-22.82,25.74-31.1,43.53l-14.48-10.94c8.28-17.79,18.48-32.06,31.1-43.54,15.59-14.18,31.75-20.29,45.52-17.21,4.19.94,8,2.69,11.39,5.2Z"/>
        <path class="cls-12" d="M292.07,5.97c1.34.99,14.12,10.68,14.92,11.28-3.5-2.68-7.46-4.55-11.83-5.53-13.77-3.08-29.93,3.03-45.52,17.21-12.62,11.47-22.82,25.74-31.1,43.53l-14.48-10.94c8.28-17.79,18.48-32.06,31.1-43.54,15.59-14.18,31.75-20.29,45.52-17.21,4.19.94,8,2.69,11.39,5.2Z"/>
        <path class="cls-3" d="M219.9,73.1l-1.35-.63c8.28-17.78,18.48-32.06,31.1-43.53,15.59-14.18,31.75-20.29,45.52-17.21,12.98,2.91,22.36,13.65,26.65,30.39l-10.21,9.29-46.77,42.55-44.93-20.86Z"/>
      </g>
      <g>
        <polygon class="cls-3" points="266.95 109.18 266.95 176.86 252.48 165.92 252.48 98.23 266.95 109.18"/>
        <polygon class="cls-6" points="266.95 109.18 266.95 176.86 252.48 165.92 252.48 98.23 266.95 109.18"/>
        <path class="cls-3" d="M266.95,176.86v-67.68s27.65,40.8,27.65,40.8c-8.83,12.15-17.35,20.44-27.65,26.88Z"/>
        <path class="cls-5" d="M266.95,176.86v-67.68s27.65,40.8,27.65,40.8c-8.83,12.15-17.35,20.44-27.65,26.88Z"/>
      </g>
    </g>
  </g>
  <g id="Character_2" data-name="Character 2">
    <g id="Character">
      <path class="cls-2" d="M376.95,93.36c-7.64.36-10.26,2.33-13.89,7.33-4.44,6.11-25.05,37.08-25.05,37.08,0,0,6.33,8.96,14.06,8.12l16.25-17.41,8.63-35.13Z"/>
      <g>
        <rect class="cls-11" x="402.76" y="301.56" width="9.88" height="17.62"/>
        <polygon class="cls-11" points="378.38 300.62 368.51 300.97 368.01 282.33 378.38 281.98 378.38 300.62"/>
        <path class="cls-9" d="M414.03,149.03c0,9.83-.24,89.28-.24,89.28.23,2.83,1.57,7.68,1.02,18.54-.75,14.75-1.75,53.52-1.75,53.52,0,0-4.8,2.92-11,.23,0,0-9.35-53.7-11.12-68.32-1.55-12.76-4.17-55.72-4.17-55.72l-5.36,49.95s1.82,7.61,1.22,16.35c-.46,6.76-3.64,41.98-3.64,41.98,0,0-4.65,3.29-11.41.91,0,0-7.28-53.34-7.4-59.55-.13-7.07,2.86-87.28,2.86-87.28l50.97.11Z"/>
        <path class="cls-10" d="M402.76,314.1v-1.47c-.95.43-3.14,9.16-7.06,12.88-3.12,2.96-7.37,6.38-8.45,9.68-1.12,3.43,5.92,5.33,8.83,4.79,3.38-.62,9.25-3.11,10.72-5.41,1.47-2.3,2.16-5.69,3.36-7.38,1.2-1.69,3.95-3.57,4.6-5.52.36-1.07-.07-3.42-.57-5.4-.46-1.82-.95-3.82-1.55-3.65,0,.22,0,1.12,0,1.12-.72.83-2.7,1.65-4.94,1.74-1.45.06-4.95-.24-4.94-1.39Z"/>
        <path class="cls-10" d="M368.4,297.8c-.51.02-.93.77-2.06,2.05-1.37,1.54-3.6,3.2-5.81,4.36-3.7,1.93-10.89,4.9-14.15,6.42-2.03.95-1.94,3.51.16,4.97,2.1,1.46,7.18,2.51,13.27,1.09,3.32-.77,7.64-3.97,10.38-3.79,2.74.17,7.85.13,9.87-1.32,2.02-1.45,1.21-4.55.64-7.21-.62-2.9-1.4-7.43-2.32-7.23v1c-1.19,1.87-7.32,2.64-9.93,1.26l-.05-1.59Z"/>
        <path class="cls-10" d="M386.78,186.56s-7.9-2.32-13.76-8.22c0,0,2.65,5.18,10.55,10l-1.69,44.61,4.9-46.39Z"/>
      </g>
      <g>
        <path class="cls-14" d="M408.89,95.43s7.73.71,7.18,15.44l-1.71,23.46.05,35.21c-7.27,8.23-41.52,7.6-52.55-.69,0,0,1.3-40.41,2.04-56.45.53-11.4,5.15-18.37,16.35-19.62l13.78.61,14.85,2.04Z"/>
        <polygon class="cls-7" points="386.93 103.16 385.16 115.53 381.03 115.45 385.69 116.19 386.93 103.16"/>
      </g>
      <g>
        <path class="cls-10" d="M396.96,63.51c0,8.13-6.33,14.73-14.14,14.73s-13.79-6.6-14.14-14.73c-.62-14.38,6.33-14.73,14.14-14.73s14.14,6.59,14.14,14.73Z"/>
        <g>
          <path class="cls-10" d="M405.51,57.8c-1.65-2.58-3.21-2.19-3.21-2.19l-1.09,12.53-1.74.36-.15,16.91s1.26-.54,2.13-2.29c.59-1.18,1.84-8.33,2.54-12.62,0,0,2.93-10.49,1.52-12.7Z"/>
          <path class="cls-11" d="M399.71,71.31c.82.51,1.99-1.13,3-2.23,1.01-1.1,4.31-2.61,5.95,1.01,1.68,3.68-1.45,8.54-4.05,9.39-4.47,1.46-5.15-1.53-5.15-1.53l-.34,16.81c-5.94,9.19-19.4,8.86-14.56-.44v-5.12s-4.04.64-6.02.32c-3.29-.53-5.36-3.23-6.36-6.94-1.6-5.96-2.21-10.77-.85-22.49,1.49-12.85,15.84-12.98,23.58-7.9,7.75,5.08,4.79,19.12,4.79,19.12Z"/>
          <path class="cls-9" d="M399.21,90.99s-2.09,4.52-5.82,7.29c-3.43,2.55-7.04,2.99-7.04,2.99,0,0,3.49,2.31,4.97,5.58,1.48,3.27,11.93-5.73,11.84-12.11,0,0-1.64-6.41-3.89-6.82l-.06,3.08Z"/>
          <path class="cls-9" d="M386.35,101.27s-3.22-1.6-1.78-6.96v-5.12s-1.4.19-1.4.19c-1.1.99-2.83,3.32-3.4,5.88-.32,1.46-1.12,8.89.3,10.36,1.29,1.34,3.39-3.96,6.28-4.36Z"/>
          <path class="cls-10" d="M377.93,59.18c6.65.17,10.78-1.23,16.29-1.89.37-.04.77-.08,1.11.07,1.22.55,1.48,4.33,1.69,5.42.72,3.68,1.32,9.92,2.7,9.94.41,0,1.98-2.7,3-3.67,1.41-1.34-.41-13.46-.41-13.47-.06-.42.31-1.18.33-1.65.05-1.17-.33-2.07-.86-3.07-1.03-1.92-2.94-3.25-4.93-4.02-3.73-1.46-7.82-1.28-11.53-2.94-1.48-.67-2.87-1.57-4.43-1.99-1.57-.43-3.44-.27-4.53.93-.73.79-.99,1.89-1.17,2.95-.78-1.02-1.6-2.07-2.77-2.59-2.16-.96-4.85.39-5.96,2.48-1.11,2.09-.94,4.65-.26,6.92.22.74.5,1.47.91,2.13,2.07,3.31,7.23,4.36,10.83,4.45Z"/>
          <path class="cls-10" d="M402.29,56.25l4.95-2.77c-.7-1.48-2.38-2.06-3.75-1.29-1.37.76-1.91,2.58-1.2,4.06Z"/>
          <path class="cls-15" d="M384.58,89.19s7.35-1.54,9.91-2.96c1.72-.95,3.13-2.6,3.55-3.66,0,0-.48,2.27-2.02,4.32-1.88,2.5-11.45,4.34-11.45,4.34v-2.04Z"/>
        </g>
        <g>
          <path class="cls-10" d="M386.35,69.39c0,.88.66,1.59,1.47,1.59.81,0,1.47-.72,1.47-1.6s-.66-1.59-1.47-1.59c-.81,0-1.47.72-1.47,1.6Z"/>
          <path class="cls-10" d="M388.18,63.75l3.15,1.81c.46-.94.14-2.11-.73-2.61-.87-.5-1.95-.14-2.42.8Z"/>
          <path class="cls-15" d="M385.25,79.98l-3.36,1.31c.33,1,1.35,1.52,2.28,1.16.93-.36,1.41-1.47,1.08-2.47Z"/>
          <path class="cls-10" d="M373.12,65.68l2.87-2.3c-.59-.86-1.7-1.03-2.5-.4-.79.64-.96,1.85-.38,2.7Z"/>
          <path class="cls-10" d="M374.11,68.96c0,.88.66,1.59,1.47,1.59.81,0,1.47-.72,1.47-1.6s-.66-1.59-1.47-1.59c-.81,0-1.47.72-1.47,1.6Z"/>
          <polygon class="cls-15" points="381.98 67.73 381.81 77.02 376.53 75.81 381.98 67.73"/>
        </g>
      </g>
      <g>
        <g>
          <path class="cls-11" d="M426,145.84s-8.56,13-10.03,14.7c-1.47,1.7-2.47,1.13-4.06.38-1.59-.76-4.61-1.72-5.95-2.08-2.62-.69-3.18,1.89-.59,3.73,1.87,1.33,4.02,1.91,3.12,3.01-.9,1.09-3.67,3.01-6.24,4.09-6.31,2.66-5.83,4-4.66,6.19,1.01,1.9,3.96,6.01,15.26,1.16,4.66-2,11.22-7.69,14.32-11.35,4.47-5.29,11.43-14.77,11.43-14.77l-12.6-5.05Z"/>
          <path class="cls-2" d="M409.56,95.69c3.1.22,10.66,2.19,17.97,15.16,6.41,11.38,14.84,25.52,15.08,31.38.08,1.9-3.67,9.18-8.11,14.97-5.12-.24-9.14-4.39-11.55-7.41,1.41-2.35,3.02-5.87,3.02-5.87l-12.93-20.03s-5.4-5.5-6.59-12.8c-1.28-7.82,1.22-14.8,3.12-15.39Z"/>
        </g>
        <g>
          <polygon class="cls-3" points="327.7 120.72 364.65 131.13 374.82 175.83 339.69 164.92 327.7 120.72"/>
          <g class="cls-19">
            <path class="cls-4" d="M344.4,152.38c-.34,1-2.61,4.63-6.91,4.41l-.27-.99,7.18-3.43Z"/>
          </g>
          <g class="cls-19">
            <path class="cls-4" d="M338.83,127.82s-.14-.67-.3-1.51c-.17-.83,2-.87,4.84-.08l5.44,1.51c2.84.79,5.28,2.1,5.45,2.93l.3,1.51-15.74-4.36Z"/>
          </g>
          <path class="cls-17" d="M336,122.16c-.11-.52.77-.66,1.96-.3l2.16.64s-.64-3.26,4.14-2.12c4.78,1.14,5.83,4.84,5.83,4.84,0,0,1.03.31,2.3.7,1.27.39,2.42,1.12,2.57,1.64l.27.94-19.03-5.36s-.1-.45-.2-.97Z"/>
          <path class="cls-10" d="M338.62,123.77c1.74.45,2.47.7,2.73,1.98.3,1.47.42,2.54.42,2.54l8.42,2.38s-.41-1.86-.54-2.58c-.13-.72.16-1.16,1.5-.78l.11-.57-13.2-3.59.55.62Z"/>
          <path class="cls-17" d="M338.33,127.97s-.14-.67-.3-1.51c-.17-.83,2-.87,4.84-.08l5.44,1.51c2.84.79,5.28,2.1,5.45,2.93l.3,1.51-15.74-4.36Z"/>
          <path class="cls-11" d="M331.6,135.07s1.38,5.05,1.7,6.26c.32,1.2,4.46,3.37,7.17,4.17,2.72.8,5.69,1.74,4.4,5.8-1.19,3.74-5.65,4.6-7.93,4.49-2.28-.11-5.39-2.43-6.62-6.18-1.57-4.78-.72-9.89-1.34-12.68-.62-2.79,1.26-3.53,2.62-1.86Z"/>
        </g>
      </g>
    </g>
  </g>
  <g id="Character_1" data-name="Character 1">
    <g id="Character-2" data-name="Character">
      <path id="Back_Arm" data-name="Back Arm" class="cls-15" d="M121.42,97.49c3.61-.36,6.33.8,9.38,3.76s21,23.95,21,23.95l31.84,1.3v11.85l-32.8,2.05c-2.71.17-5.37-.79-7.35-2.65l-18.73-17.61-3.34-22.65Z"/>
      <g id="Slice">
        <path class="cls-3" d="M175.3,170.05h.05c-20.84-15.28-24.02-57.49-6.86-99.58l14.48,10.94c-17.06,41.84-14.04,83.8,6.47,99.33l-14.13-10.69Z"/>
        <path class="cls-8" d="M175.3,170.05h.05c-20.84-15.28-24.02-57.49-6.86-99.58l14.48,10.94c-17.06,41.84-14.04,83.8,6.47,99.33l-14.13-10.69Z"/>
        <polygon class="cls-3" points="214.76 91.96 229.24 102.91 182.96 81.42 168.49 70.47 214.76 91.96"/>
        <polygon class="cls-1" points="214.76 91.96 229.24 102.91 182.96 81.42 168.49 70.47 214.76 91.96"/>
        <path class="cls-3" d="M194.98,184.07c-25.4-11.8-30.5-57.3-12.02-102.66l46.28,21.49v78.31c-12.78,6.68-24.02,7.62-34.26,2.86Z"/>
        <path class="cls-13" d="M194.98,184.07c-25.4-11.8-30.5-57.3-12.02-102.66l46.28,21.49v78.31c-12.78,6.68-24.02,7.62-34.26,2.86Z"/>
      </g>
      <g id="Character_Girl" data-name="Character Girl">
        <g>
          <path class="cls-10" d="M52.81,300.63c.69,1.73.14,3.79-.09,8.33-.15,2.99-.42,5.99-.21,8.98.07,1.07.36,2.06.51,3.11.13.85.43,1.58,1.06,2.2.52.52,1.28.85,2,.71.57-.12,1.06-.52,1.37-1.02.42-.67,1.16-2.31,1.37-3.05.37,7.65,8.27,13.44,3.12,15-4.47,1.35-8.3.08-10.89-1.3-1.59-.84-3.03-2.57-3.33-3.2-1.72-3.5-1.29-6.7-1.13-9.6.36-6.42-.49-9.8-.8-13.04-.37-3.92,5.84-7.77,7.02-7.11Z"/>
          <path class="cls-10" d="M108.04,303.45s-.43.03-.56.61c-.2.84-.47,2.43-.85,3.87-.51,1.92-1.1,4.68-.88,6.26.22,1.58,2.23,3.23,6.11,4.6,2.34.83,6.46,3.16,8.29,5.05,2.24,2.32,7.22,4.45,10.65,4.78,4.03.38,8.3-.43,9.46-3.27.49-1.19-1.43-2.66-6.44-5.47,0,0-2.52-1.54-3.94-2.57-7.16-5.17-9.53-8-11.4-12.92l-10.43-.94Z"/>
          <path class="cls-11" d="M121.03,308.5c-2.21-2.72-2.51-5.23-1.88-9.97.63-4.74,7.07-46.03,8.71-56.36,2.75-17.36,5.95-64.02,3.44-79.29l-45.55.66c-3.93,8.24-7.08,18.49-7.6,34.86-.4,12.49-2.86,46.26-2.86,46.26,0,0-6,4.6-10.69,14.15-4.14,8.44-10.19,38.11-10.19,38.11h0c-.76,1.95-1.37,3.43-1.61,3.71-1.07,1.27-1.85,2.64-1.96,4.26-.33,5.17-.11,10.38.65,15.5.4,2.65,1.92,4.44,4.47,5.65.56.27,1.18.43,1.81.42.32,0,.66-.06.9-.27.47-.41.13-1.49.08-2.02-.08-.85-.1-1.72-.07-2.57.06-1.69.24-3.74.46-5.41.57-4.37,1.44-7.89,2.53-11.04,0,0,.41-.83,1.04-2.1h0s22.82-39.46,29.2-49.03c5.06-7.5,10.04-37.57,14.33-53.91l2.93,39.89s-2.86,6.99-3.84,12.41c-1.32,7.28,2.02,36.36,2.91,46.69.17,1.92.06,3.84-.3,5.73h0c.26,4.47,3.5,6.04,6.78,8.77,1.63,1.36,8.85,6.41,13.34,7.62,3.64.99,5.15-.36,5.73-1.36-4.43-3.01-10.57-8.65-12.78-11.37Z"/>
          <path class="cls-9" d="M93.28,150.82s-8.17,9.79-11.53,20.6c-3.36,10.81-3.7,18.03-4.87,37.18-1.18,19.15-1.52,35.14-1.52,35.14,0,0-11.07,7.37-14.59,24.88,0,0,.84,1.51,2.6,3.31l7.34-10.02-4.73,12.29c2.7,1.97,6.49,3.71,11.46,3.71,0,0,11.93-18.24,15.85-23.95,3.92-5.71,12.98-53.83,12.98-53.83l1.86,39.89s-4.03,9.24-4.03,15.96.68,16.58.68,16.58c0,0,8.32,4.47,18.25.65,0,0,5.77-30.84,6.94-42.09s5.21-50.98,1.35-76.3l-38.02-3.98Z"/>
          <path class="cls-10" d="M106.23,200.22l5.62-17.15s8.5,1.56,15.57-2.97c0,0-1.8,6.29-13.87,7.4l-6.24,16.79-.47,8.19-.61-12.25Z"/>
        </g>
        <path class="cls-3" d="M137.49,116.07c-4.08-7.29-13.28-16.07-16.07-18.58l-16.39,1.27c-3.66.47-7.34.87-9.11,1.67-3.68,1.67-5.2,3.35-5.59,7.51-.43,4.56-.22,8.9.87,13.4,1.09,4.51,3.14,11.01,3.14,11.01l.26,1.5c.05.26.08.52.13.78.31,1.96.17,7.73-.12,9.87,7.09,11.39,33.94,8.87,36.68,3.13.87-3.59,3.18-13.69,3.31-15.08,5.5-4.34,5.85-11.18,2.88-16.49Z"/>
        <g>
          <path class="cls-17" d="M94.61,144.51l-1.33,6.32s4.5,5.91,19.47,6.87c13.68.88,18.55-2.89,18.55-2.89v-7.17s-4.88,4.15-19.01,2.78c-12.39-1.2-17.68-5.91-17.68-5.91Z"/>
          <path class="cls-2" d="M125.27,149.83c-1.12-.38-4.7-.1-5.73.47s-1.29,6.68-.93,7.5c.37.82,5.37.94,6.62-.74.47-.63,1.37-6.78.04-7.22ZM123.98,156.24c-.33.3-1.45.66-2.94.66h0c-.47,0-.85-.04-1.1-.08-.08-1.33.13-4.35.52-5.31.56-.17,1.87-.38,3.17-.38.35,0,.61.02.79.03.22,1.13-.11,4.16-.44,5.08Z"/>
        </g>
        <g>
          <path class="cls-10" d="M115.67,48.05l-2.54-.02c-12.04-.07-21.86,9.63-21.93,21.67h0c-.08,12.49,9.99,22.68,22.48,22.76l.06-14.24s19.18,2.38,22.77-11.39c3.58-13.77-8.79-18.7-20.83-18.77Z"/>
          <path class="cls-10" d="M86.11,76.76c4.43-3.25,8.19-.48,11.45,3.95,3.25,4.43,4.76,8.85.33,12.1-4.43,3.25-10.66,2.29-13.91-2.14s-2.29-10.66,2.14-13.91Z"/>
          <g>
            <path class="cls-11" d="M127.04,58.65c2.49,1.49,7.26,3.1,6.61,19.17-.45,11.17-3.97,13.92-5.79,14.7s-5.33.28-8.74-.31l-.04,6.71s6.03,7.25,6.89,14.38c0,0-4.16-1.24-13.58-7.52-6.31-4.2-7.37-6.39-7.37-6.39l.11-16.18s-2.24,2.49-5.99-.04c-3.75-2.53-3.4-7.43-1.19-9.64,2.2-2.21,6.37-1.02,7.23,2.05,0,0,5.2-.21,11.62-3.13,6.96-3.17,9.74-9.48,10.25-13.81Z"/>
            <path class="cls-10" d="M105.17,75.6v4.58h0c2.34,0,4.24-1.9,4.24-4.24v-5.7l-4.24,5.36Z"/>
            <path class="cls-10" d="M121.33,74.82c.04.81-.56,1.49-1.34,1.52-.78.03-1.43-.6-1.47-1.4-.04-.81.56-1.49,1.34-1.52.78-.03,1.43.6,1.47,1.4Z"/>
            <path class="cls-15" d="M121.5,84.42l3.26,1.06c-.28.93-1.23,1.45-2.13,1.16-.9-.29-1.41-1.29-1.13-2.22Z"/>
            <path class="cls-10" d="M132.85,70.02l-3.39-.7c.16-.95,1.05-1.56,1.99-1.37.94.19,1.56,1.12,1.4,2.07Z"/>
            <path class="cls-10" d="M132.21,73.87c.04.81-.56,1.49-1.34,1.52-.78.03-1.43-.6-1.47-1.4-.04-.81.56-1.49,1.34-1.52.78-.03,1.43.6,1.47,1.4Z"/>
            <polygon class="cls-15" points="125.69 73.57 125.87 82.03 130.33 80.68 125.69 73.57"/>
            <path class="cls-15" d="M119.11,92.21c-3.59-.49-10.98-2.66-12.11-5.6,0,0,.37,1.84,2.57,3.75,2.2,1.91,9.53,4.09,9.53,4.09v-2.24Z"/>
          </g>
        </g>
      </g>
      <g id="Arm">
        <path class="cls-11" d="M185.28,108.18c-.27-1.2-.83-2.19-1.75-3-.31-.27-.61-.46-1.09-.41-.48.05-.88.49-1.18.91-1.06,1.52-1.89,3.17-3.03,4.67-1.14,1.5-2.5,2.6-4.33,3.14-.09-.39.01-.68.16-1.04.36-.9.65-1.55,1.04-2.52.39-.98.8-2.24.21-3.3-.16-.28-.44-.5-.74-.48s-.46.18-.66.36c-2.04,1.8-3.56,3.52-5.48,5.52s-2.09,3.37-4.93,5.37c-2.84,1.99-6.62,3.56-10.89,5.49-4.28,1.93-11.11,5-16.36,6.58-8.94-5.58-23.58-18.15-30.16-23.19-3.53-2.7-6.9-5.59-9.03-6.23-2.83-.24-5.37,1.94-6.87,6.28-2.71,11.78,5.62,16.6,17.3,24.08,3.98,2.55,16.59,10.7,22.46,14.31,1.44.88,3.76,1.53,5.89.75,2.51-.92,5.27-2,8.1-3.42,4.89-2.45,11.02-5.95,15.88-8.44,3.94-2.02,8.08-4.19,11.44-5.99,2.62-1.41,3.53-1.88,5.62-3.39s3.94-3.18,5.64-5.12c.92-1.05,1.71-2.28,2.2-3.54.49-1.25.64-2.53.75-3.79s.1-2.38-.17-3.58Z"/>
      </g>
    </g>
  </g>
</svg>