<?xml version="1.0" encoding="utf-8"?>
<!-- Generator: Adobe Illustrator 28.3.0, SVG Export Plug-In . SVG Version: 6.00 Build 0)  -->
<svg version="1.1" id="Camada_1" xmlns="http://www.w3.org/2000/svg" xmlns:xlink="http://www.w3.org/1999/xlink" x="0px" y="0px"
	 viewBox="0 0 797.6 131.9" style="enable-background:new 0 0 797.6 131.9;" xml:space="preserve">
<style type="text/css">
	.st0{fill:#13BA81;}
</style>
<g>
	<path class="st0" d="M170.9,18.2H193l9.8,86.6h-24.5l-0.6-16.9h-21.4l-7.9,16.9h-24.6C123.8,104.8,170.9,18.2,170.9,18.2z M177,72
		l-1-26.8L163.6,72H177L177,72z"/>
	<path class="st0" d="M230.5,106c-6.3,0-11.5-1.2-15.6-3.7s-7.2-5.7-9.3-9.7s-3-8.4-3-13.1s1-9.6,3-14.3s4.8-8.8,8.5-12.5
		c3.7-3.7,8.2-6.7,13.4-8.9s11-3.3,17.4-3.3c7.6,0,13.6,1.6,18,4.9s7.4,7.4,8.8,12.6l-24.3,6.8c-0.6-1.5-1.4-2.7-2.6-3.5
		c-1.1-0.8-2.6-1.2-4.2-1.2c-1.7,0-3.4,0.4-5,1.2c-1.6,0.8-3.1,2-4.3,3.5c-1.3,1.5-2.3,3.3-3,5.3s-1.1,4.3-1.1,6.8
		c0,1.9,0.3,3.7,0.9,5.1c0.6,1.4,1.5,2.6,2.7,3.3c1.1,0.8,2.5,1.2,3.9,1.2c1.1,0,2.1-0.2,3.1-0.6s2-0.9,3-1.7
		c0.9-0.7,1.8-1.6,2.7-2.6l21.4,6.8c-2.5,3.4-5.4,6.4-8.8,9c-3.4,2.6-7.2,4.7-11.5,6.2C240.2,105.2,235.6,106,230.5,106L230.5,106z"
		/>
	<path class="st0" d="M293.1,106c-5.6,0-10.5-1.1-14.7-3.3c-4.2-2.2-7.5-5.3-9.8-9.3c-2.3-4-3.5-8.7-3.5-14.1s1.1-10.5,3.3-15.2
		c2.2-4.7,5.3-8.8,9.2-12.3c3.9-3.5,8.5-6.3,13.7-8.3s10.8-3,16.7-3c5.3,0,9.8,0.7,13.5,2.2s6.6,3.5,8.6,6.3s3,6.1,3,9.9
		c0,7-3.4,12.4-10.1,16c-6.8,3.6-16.7,5.5-29.8,5.5c-2.6,0-5.4-0.1-8.3-0.2c-2.9-0.1-5.8-0.3-8.7-0.7l3-13.8
		c2.1,0.2,4.4,0.4,6.7,0.6c2.3,0.1,4.7,0.2,7.3,0.2c4.2,0,7.6-0.2,10.1-0.5s4.3-0.8,5.4-1.6c1.1-0.8,1.6-1.8,1.6-3
		c0-0.9-0.3-1.7-0.8-2.3c-0.5-0.7-1.3-1.2-2.2-1.5c-1-0.4-2-0.6-3.3-0.6c-2.1,0-4,0.6-5.9,1.8c-1.9,1.2-3.5,2.9-4.9,5
		s-2.5,4.6-3.3,7.4c-0.8,2.8-1.2,5.8-1.2,9.1c0,2.1,0.3,3.8,0.9,5.2c0.6,1.3,1.6,2.3,3,2.9s3.1,0.9,5.2,0.9c2.6,0,5-0.6,7-1.7
		s3.8-2.8,5.1-4.9l18.4,5.8c-2.4,3.4-5.5,6.4-9.2,9c-3.8,2.6-7.9,4.6-12.3,6.1C302.1,105.2,297.6,106,293.1,106L293.1,106z"/>
	<path class="st0" d="M344.4,106c-5.1,0-9-1.1-11.7-3.3c-2.7-2.2-4-5.5-4-9.7c0-0.9,0-1.8,0.1-2.7s0.2-1.8,0.5-2.8l15.5-71.7h23.5
		l-13.7,63.5c-0.1,0.5-0.2,1-0.2,1.4c-0.1,0.4-0.1,0.9-0.1,1.3c0,3.1,1.5,4.6,4.5,4.6c0.9,0,1.9-0.2,3.1-0.5
		c1.1-0.3,2.3-0.8,3.3-1.3l-0.7,17.1c-3,1.3-6.3,2.3-9.9,3.1C350.7,105.6,347.4,106,344.4,106L344.4,106z"/>
	<path class="st0" d="M392.8,106c-5.6,0-10.5-1.1-14.7-3.3c-4.2-2.2-7.5-5.3-9.8-9.3s-3.5-8.7-3.5-14.1s1.1-10.5,3.3-15.2
		c2.2-4.7,5.3-8.8,9.2-12.3c3.9-3.5,8.5-6.3,13.7-8.3s10.8-3,16.7-3c5.3,0,9.8,0.7,13.5,2.2s6.6,3.5,8.6,6.3s3,6.1,3,9.9
		c0,7-3.4,12.4-10.1,16c-6.8,3.6-16.7,5.5-29.8,5.5c-2.6,0-5.4-0.1-8.3-0.2c-2.9-0.1-5.8-0.3-8.7-0.7l3-13.8
		c2.1,0.2,4.4,0.4,6.7,0.6c2.3,0.1,4.7,0.2,7.3,0.2c4.2,0,7.6-0.2,10.1-0.5s4.3-0.8,5.4-1.6c1.1-0.8,1.6-1.8,1.6-3
		c0-0.9-0.3-1.7-0.8-2.3c-0.5-0.7-1.3-1.2-2.2-1.5c-1-0.4-2-0.6-3.3-0.6c-2.1,0-4,0.6-5.9,1.8c-1.9,1.2-3.5,2.9-4.9,5
		s-2.5,4.6-3.3,7.4c-0.8,2.8-1.2,5.8-1.2,9.1c0,2.1,0.3,3.8,0.9,5.2c0.6,1.3,1.6,2.3,3,2.9s3.1,0.9,5.2,0.9c2.6,0,5-0.6,7-1.7
		s3.8-2.8,5.1-4.9l18.4,5.8c-2.4,3.4-5.5,6.4-9.2,9c-3.8,2.6-7.9,4.6-12.3,6.1C401.8,105.2,397.3,106,392.8,106L392.8,106z"/>
	<path class="st0" d="M439.6,41.5h21.5l-2.7,12c3.1-4.2,6.6-7.5,10.4-9.8c3.8-2.3,7.5-3.4,11.1-3.4h1.9c0.3,0,0.6,0,0.9,0.1
		l-4.5,20.8c-4.2,0-8.2,0.5-11.9,1.4s-6.7,2.5-8.9,4.6l-8.2,37.5h-23.5L439.6,41.5L439.6,41.5z"/>
	<path class="st0" d="M495.9,106c-4.8,0-8.9-1.1-12.3-3.2c-3.4-2.2-6.1-5.2-7.9-9s-2.8-8.2-2.8-13.2c0-5.4,0.9-10.6,2.8-15.4
		c1.9-4.8,4.4-9.1,7.7-12.8s7-6.6,11.2-8.7c4.2-2.1,8.6-3.2,13.4-3.2c3.9,0,7.2,0.9,10.1,2.8s4.8,4.5,5.8,7.7l2-9.6h23.6l-8.3,36.7
		c-0.1,0.6-0.2,1.1-0.2,1.5s-0.1,0.9-0.1,1.3c0,2,1.1,3,3.3,3.1l-4.2,19.5c-2.1,0.4-4.1,0.7-5.8,0.9c-1.7,0.2-3.1,0.3-4.3,0.3
		c-3.6,0-6.5-0.6-8.7-1.8s-3.3-3.3-3.3-6.4V96c0-0.2,0-0.3,0.1-0.5s0.1-0.3,0.1-0.5c-3,3.8-6.4,6.6-10.3,8.4S499.9,106,495.9,106
		L495.9,106z M506.5,86.5c1,0,1.9-0.1,2.8-0.4c0.9-0.3,1.8-0.7,2.7-1.1s1.8-1.1,2.8-1.9s1.9-1.7,2.9-2.7l2.5-11.3
		c-0.2-1.8-0.8-3.3-1.6-4.7c-0.8-1.3-1.8-2.4-3.1-3.2c-1.2-0.8-2.6-1.2-4.1-1.2c-1.7,0-3.4,0.5-5.1,1.3c-1.6,0.9-3.1,2.1-4.5,3.7
		c-1.3,1.6-2.4,3.4-3.1,5.4c-0.8,2-1.2,4.1-1.2,6.3c0,1.9,0.4,3.7,1,5.1c0.7,1.4,1.7,2.6,3,3.4C503,86,504.6,86.5,506.5,86.5
		L506.5,86.5z"/>
	<path class="st0" d="M604.5,105.4c-5.4,0-10.3-1-14.5-3c-4.2-2-7.8-4.7-10.7-8.1c-2.9-3.4-5.1-7.3-6.5-11.6s-2.2-8.9-2.2-13.6
		c0-5.2,0.9-10.3,2.8-15.4c1.8-5,4.5-9.7,7.8-14.1c3.3-4.3,7.2-8.2,11.7-11.5s9.4-5.9,14.6-7.7s10.8-2.8,16.4-2.8s10.3,1,14.5,3
		s7.7,4.7,10.6,8.1c2.9,3.4,5,7.3,6.5,11.6c1.4,4.3,2.2,8.9,2.2,13.6c0,5.2-0.9,10.3-2.8,15.3c-1.8,5-4.4,9.7-7.7,14
		c-3.3,4.3-7.2,8.2-11.6,11.5s-9.3,5.9-14.6,7.8S610.2,105.4,604.5,105.4L604.5,105.4z M609.2,84.3c4,0,7.4-0.9,10.4-2.7
		c3-1.8,5.5-4.1,7.5-7c2-2.9,3.5-6,4.5-9.3c1-3.3,1.5-6.6,1.5-9.8c0-3-0.5-5.8-1.4-8.3c-1-2.6-2.5-4.6-4.5-6.2
		c-2.1-1.5-4.8-2.3-8.2-2.3c-3.9,0-7.3,0.9-10.3,2.6c-3,1.8-5.4,4-7.4,6.9c-2,2.8-3.5,5.9-4.5,9.3s-1.5,6.6-1.5,9.8s0.5,5.8,1.4,8.4
		s2.5,4.7,4.5,6.3C603.2,83.5,605.9,84.3,609.2,84.3L609.2,84.3z"/>
	<path class="st0" d="M663.9,41.5H685l-2.1,9.6c2-2.3,4.2-4.2,6.8-5.8c2.5-1.6,5.4-2.7,8.5-3.5s6.5-1.2,10-1.2c4,0,7.1,0.7,9.2,2
		c2.1,1.4,3.6,3.1,4.4,5.3c0.8,2.2,1.2,4.5,1.2,6.9c0,1.5-0.1,3-0.3,4.4c-0.2,1.4-0.4,2.8-0.7,4.1l-9,41.5h-23.5l7.8-35.2
		c0.2-0.6,0.3-1.2,0.3-1.7s0.1-0.9,0.1-1.4c0-2-0.5-3.4-1.4-4.3s-2.1-1.4-3.4-1.4c-1.1,0-2.3,0.4-3.7,1.1s-2.8,1.8-4.2,3.1
		s-2.6,2.8-3.7,4.5l-7.8,35.4h-23.5L663.9,41.5L663.9,41.5z"/>
	<path class="st0" d="M739.8,131.9c-6.5,0-12-1.1-16.5-3.2s-8.2-5.2-11.2-9.1l15.1-12.7c1.7,2.2,4,4,6.8,5.6
		c2.8,1.5,5.9,2.3,9.4,2.3c2.6,0,5.2-0.5,7.7-1.5c2.5-1,4.7-2.7,6.5-4.9c1.9-2.3,3.2-5.2,4-9l0.9-4.1c-2.4,3.6-5.4,6.3-9.1,8.1
		c-3.7,1.8-7.5,2.7-11.4,2.7c-4.4,0-8.1-1.1-11.2-3.2c-3.1-2.2-5.5-5.1-7.1-8.9c-1.6-3.8-2.4-8-2.4-12.8c0-5.6,1-10.9,3-15.8
		c2-4.9,4.7-9.2,8.1-12.9c3.4-3.7,7.3-6.6,11.8-8.7s9.1-3.2,14.1-3.2c4.4,0,8,0.9,11,2.7c3,1.8,5,4.4,6.1,7.9l2.1-9.6h20.4L785,99.3
		c-1.4,6.6-4.2,12.3-8.5,17.2c-4.2,4.9-9.5,8.7-15.8,11.4S747.5,132,739.8,131.9L739.8,131.9z M754.4,87.7c1,0,1.9-0.2,2.8-0.5
		s1.8-0.8,2.8-1.3c1-0.6,1.9-1.3,2.8-2.3c0.9-0.9,1.8-2,2.8-3.1l2.5-11.3c-0.2-1.9-0.8-3.5-1.7-4.9s-1.9-2.4-3.1-3.2
		c-1.2-0.7-2.5-1.1-4-1.1c-1.7,0-3.4,0.5-5,1.5c-1.6,1-3.1,2.3-4.4,3.9c-1.3,1.6-2.4,3.5-3.2,5.6s-1.2,4.3-1.2,6.6
		c0,2,0.3,3.7,1,5.3c0.7,1.6,1.7,2.8,3,3.6S752.6,87.7,754.4,87.7L754.4,87.7z"/>
</g>
<g>
	<g>
		<polygon class="st0" points="68.9,0 76.4,1.1 61.1,102 116.1,38.3 121.8,43.2 49.8,126.7 		"/>
		<circle class="st0" cx="96" cy="27.6" r="10.2"/>
	</g>
	<g>
		<polygon class="st0" points="36.5,39.1 31.4,39.8 42,109.6 3.9,65.6 0,69 49.8,126.7 		"/>
		<circle class="st0" cx="17.9" cy="58.1" r="7.1"/>
	</g>
</g>
</svg>
