<?xml version="1.0" encoding="UTF-8"?>
<svg id="Camada_1" data-name="Camada 1" xmlns="http://www.w3.org/2000/svg" viewBox="0 0 797.62 131.95">
  <defs>
    <style>
      .cls-1 {
        fill: #fff;
        stroke-width: 0px;
      }
    </style>
  </defs>
  <g>
    <path class="cls-1" d="M170.85,18.22h22.12l9.76,86.55h-24.47l-.63-16.94h-21.4l-7.87,16.94h-24.59l47.08-86.55ZM177.04,71.98l-1-26.82-12.45,26.82h13.46Z"/>
    <path class="cls-1" d="M230.53,105.99c-6.26,0-11.47-1.22-15.63-3.66-4.16-2.44-7.25-5.67-9.27-9.71-2.02-4.04-3.03-8.41-3.03-13.13s.99-9.63,2.97-14.27c1.98-4.64,4.82-8.81,8.53-12.53,3.71-3.72,8.16-6.67,13.35-8.87,5.19-2.2,11-3.3,17.43-3.3,7.58,0,13.57,1.63,17.98,4.88,4.41,3.25,7.35,7.44,8.84,12.56l-24.34,6.83c-.58-1.54-1.44-2.72-2.6-3.53-1.15-.81-2.55-1.22-4.2-1.22-1.73,0-3.4.41-5,1.23-1.61.82-3.05,1.97-4.33,3.45-1.28,1.48-2.29,3.26-3.03,5.33s-1.11,4.35-1.11,6.85c0,1.95.31,3.65.93,5.09.62,1.44,1.5,2.56,2.66,3.34,1.15.78,2.47,1.17,3.95,1.17,1.07,0,2.12-.18,3.15-.55,1.03-.37,2.02-.91,2.97-1.65.95-.73,1.83-1.58,2.66-2.56l21.38,6.83c-2.47,3.41-5.42,6.42-8.84,9.02-3.42,2.6-7.25,4.65-11.49,6.16-4.24,1.5-8.88,2.26-13.9,2.26Z"/>
    <path class="cls-1" d="M293.06,105.99c-5.6,0-10.5-1.1-14.71-3.3-4.2-2.2-7.46-5.31-9.76-9.35-2.31-4.04-3.46-8.73-3.46-14.09s1.11-10.49,3.34-15.16c2.22-4.68,5.29-8.77,9.21-12.29,3.91-3.52,8.47-6.27,13.66-8.27s10.75-3,16.68-3c5.27,0,9.76.72,13.47,2.16s6.57,3.54,8.59,6.3c2.02,2.76,3.03,6.06,3.03,9.91,0,7.04-3.38,12.39-10.13,16.03-6.76,3.64-16.68,5.46-29.78,5.46-2.64,0-5.42-.06-8.34-.18-2.92-.12-5.83-.34-8.71-.67l2.97-13.78c2.14.24,4.37.43,6.67.55,2.31.12,4.74.18,7.29.18,4.2,0,7.56-.15,10.07-.46,2.51-.31,4.3-.84,5.38-1.6,1.07-.76,1.61-1.76,1.61-2.98,0-.92-.27-1.7-.8-2.35-.54-.65-1.28-1.17-2.22-1.55-.95-.38-2.04-.57-3.28-.57-2.06,0-4.04.61-5.93,1.83-1.9,1.22-3.54,2.89-4.94,5.01-1.4,2.12-2.51,4.6-3.34,7.43-.82,2.83-1.24,5.85-1.24,9.08,0,2.12.31,3.85.93,5.19.62,1.34,1.61,2.32,2.97,2.95s3.11.94,5.25.94c2.64,0,4.98-.57,7.04-1.71,2.06-1.14,3.75-2.76,5.07-4.88l18.41,5.85c-2.39,3.41-5.46,6.42-9.21,9.02-3.75,2.6-7.85,4.63-12.3,6.09-4.45,1.46-8.94,2.19-13.47,2.19Z"/>
    <path class="cls-1" d="M344.35,105.99c-5.11,0-9-1.12-11.68-3.35-2.68-2.23-4.02-5.47-4.02-9.69,0-.89.04-1.79.12-2.68.08-.89.25-1.83.49-2.8l15.45-71.68h23.48l-13.72,63.51c-.08.49-.17.96-.25,1.4-.08.45-.12.87-.12,1.28,0,3.09,1.48,4.63,4.45,4.63.91,0,1.93-.16,3.09-.49,1.15-.32,2.26-.77,3.34-1.34l-.74,17.07c-2.96,1.3-6.26,2.32-9.88,3.05-3.63.73-6.96,1.1-10.01,1.1Z"/>
    <path class="cls-1" d="M392.79,105.99c-5.6,0-10.5-1.1-14.71-3.3-4.2-2.2-7.46-5.31-9.76-9.35s-3.46-8.73-3.46-14.09,1.11-10.49,3.34-15.16c2.22-4.68,5.29-8.77,9.21-12.29,3.91-3.52,8.47-6.27,13.66-8.27,5.19-2,10.75-3,16.68-3,5.27,0,9.76.72,13.47,2.16s6.57,3.54,8.59,6.3c2.02,2.76,3.03,6.06,3.03,9.91,0,7.04-3.38,12.39-10.13,16.03-6.76,3.64-16.68,5.46-29.78,5.46-2.64,0-5.42-.06-8.34-.18-2.93-.12-5.83-.34-8.71-.67l2.97-13.78c2.14.24,4.37.43,6.67.55,2.3.12,4.74.18,7.29.18,4.2,0,7.56-.15,10.07-.46,2.51-.31,4.3-.84,5.38-1.6,1.07-.76,1.61-1.76,1.61-2.98,0-.92-.27-1.7-.8-2.35-.54-.65-1.28-1.17-2.22-1.55-.95-.38-2.04-.57-3.28-.57-2.06,0-4.04.61-5.93,1.83-1.9,1.22-3.54,2.89-4.94,5.01-1.4,2.12-2.51,4.6-3.34,7.43-.82,2.83-1.24,5.85-1.24,9.08,0,2.12.31,3.85.93,5.19.62,1.34,1.61,2.32,2.97,2.95s3.11.94,5.25.94c2.63,0,4.98-.57,7.04-1.71,2.06-1.14,3.75-2.76,5.07-4.88l18.41,5.85c-2.39,3.41-5.46,6.42-9.21,9.02-3.75,2.6-7.85,4.63-12.3,6.09-4.45,1.46-8.94,2.19-13.47,2.19Z"/>
    <path class="cls-1" d="M439.62,41.5h21.5l-2.72,12.03c3.13-4.25,6.59-7.53,10.38-9.81,3.79-2.29,7.5-3.43,11.12-3.43h1.85c.33,0,.62.04.86.12l-4.45,20.85c-4.2,0-8.16.46-11.86,1.38s-6.67,2.46-8.9,4.61l-8.16,37.53h-23.48l13.84-63.27Z"/>
    <path class="cls-1" d="M495.85,105.99c-4.78,0-8.88-1.08-12.3-3.24-3.42-2.16-6.06-5.16-7.91-8.99s-2.78-8.23-2.78-13.19c0-5.44.93-10.57,2.78-15.41,1.85-4.83,4.43-9.09,7.72-12.77,3.29-3.68,7.04-6.57,11.25-8.69,4.2-2.12,8.65-3.18,13.35-3.18,3.87,0,7.25.94,10.13,2.82,2.88,1.88,4.82,4.46,5.81,7.73l1.98-9.58h23.6l-8.28,36.67c-.08.55-.17,1.06-.25,1.53-.08.47-.12.9-.12,1.29,0,1.96,1.11,2.98,3.34,3.05l-4.2,19.5c-2.14.41-4.06.71-5.75.91-1.69.2-3.11.31-4.26.31-3.63,0-6.53-.6-8.71-1.81-2.18-1.21-3.28-3.34-3.28-6.4v-.59c0-.18.02-.35.06-.53.04-.18.06-.34.06-.48-2.97,3.84-6.41,6.63-10.32,8.39-3.91,1.76-7.89,2.64-11.92,2.64ZM506.48,86.48c.99,0,1.93-.13,2.84-.4.91-.27,1.81-.65,2.72-1.14.91-.49,1.83-1.14,2.78-1.94.95-.8,1.92-1.69,2.9-2.68l2.47-11.27c-.25-1.77-.78-3.34-1.61-4.69-.82-1.35-1.85-2.41-3.09-3.19-1.24-.77-2.59-1.16-4.08-1.16-1.73,0-3.42.45-5.07,1.35-1.65.9-3.13,2.13-4.45,3.69-1.32,1.56-2.37,3.36-3.15,5.38-.78,2.03-1.17,4.14-1.17,6.32,0,1.95.35,3.65,1.05,5.09.7,1.44,1.71,2.58,3.03,3.39,1.32.82,2.92,1.23,4.82,1.23Z"/>
    <path class="cls-1" d="M604.47,105.38c-5.44,0-10.28-.99-14.52-2.99-4.25-1.99-7.81-4.69-10.69-8.11-2.88-3.41-5.07-7.29-6.55-11.64-1.48-4.35-2.22-8.88-2.22-13.59,0-5.2.93-10.32,2.78-15.36,1.85-5.04,4.45-9.73,7.79-14.08,3.34-4.35,7.25-8.17,11.74-11.46,4.49-3.29,9.37-5.87,14.64-7.74,5.27-1.87,10.75-2.8,16.44-2.8s10.26,1,14.46,2.99c4.2,1.99,7.74,4.69,10.63,8.11,2.88,3.41,5.05,7.3,6.49,11.64,1.44,4.35,2.16,8.88,2.16,13.59,0,5.2-.93,10.3-2.78,15.3-1.85,5-4.43,9.67-7.72,14.02-3.3,4.35-7.17,8.19-11.62,11.52-4.45,3.33-9.31,5.93-14.58,7.8-5.27,1.87-10.75,2.8-16.43,2.8ZM609.17,84.29c3.96,0,7.42-.89,10.38-2.68,2.97-1.79,5.46-4.12,7.48-7.01,2.02-2.88,3.52-5.99,4.51-9.33.99-3.33,1.48-6.58,1.48-9.75,0-3.01-.48-5.79-1.42-8.35-.95-2.56-2.45-4.61-4.51-6.16-2.06-1.54-4.78-2.32-8.16-2.32-3.87,0-7.29.87-10.26,2.62-2.97,1.75-5.44,4.04-7.41,6.89-1.98,2.85-3.48,5.93-4.51,9.26-1.03,3.33-1.55,6.58-1.55,9.75s.47,5.81,1.42,8.41c.95,2.6,2.45,4.69,4.51,6.28,2.06,1.58,4.74,2.38,8.03,2.38Z"/>
    <path class="cls-1" d="M663.91,41.5h21.13l-2.1,9.57c1.98-2.32,4.24-4.25,6.8-5.81,2.55-1.56,5.4-2.73,8.53-3.53,3.13-.8,6.47-1.2,10.01-1.2,4.04,0,7.11.68,9.21,2.04,2.1,1.36,3.56,3.13,4.39,5.33.82,2.2,1.24,4.5,1.24,6.89,0,1.52-.11,3-.31,4.44-.21,1.44-.43,2.8-.68,4.07l-9.02,41.47h-23.48l7.79-35.2c.16-.63.27-1.19.31-1.66s.06-.95.06-1.43c0-1.98-.47-3.43-1.42-4.34-.95-.91-2.08-1.37-3.4-1.37-1.07,0-2.31.37-3.71,1.1-1.4.73-2.8,1.75-4.2,3.06-1.4,1.31-2.64,2.81-3.71,4.5l-7.79,35.36h-23.48l13.84-63.27Z"/>
    <path class="cls-1" d="M739.79,131.95c-6.51,0-12.01-1.06-16.5-3.17-4.49-2.11-8.22-5.16-11.18-9.14l15.08-12.68c1.73,2.19,4,4.04,6.8,5.55,2.8,1.5,5.93,2.26,9.39,2.26,2.63,0,5.19-.52,7.66-1.54,2.47-1.03,4.65-2.68,6.55-4.93,1.89-2.26,3.21-5.25,3.95-8.98l.86-4.1c-2.39,3.59-5.44,6.29-9.14,8.08-3.71,1.79-7.5,2.69-11.37,2.69-4.37,0-8.12-1.08-11.25-3.24-3.13-2.16-5.5-5.13-7.11-8.91-1.61-3.79-2.41-8.04-2.41-12.76,0-5.62.99-10.87,2.97-15.76,1.98-4.88,4.67-9.18,8.09-12.88,3.42-3.7,7.35-6.61,11.8-8.73,4.45-2.12,9.14-3.17,14.09-3.17,4.37,0,8.03.9,11,2.71,2.97,1.81,4.98,4.44,6.06,7.89l2.1-9.62h20.39l-12.6,57.81c-1.4,6.58-4.22,12.33-8.46,17.23-4.24,4.9-9.52,8.69-15.82,11.38-6.3,2.69-13.28,4.03-20.95,4.03ZM754.37,87.7c.99,0,1.93-.15,2.84-.46s1.83-.75,2.78-1.33c.95-.57,1.87-1.33,2.78-2.26.91-.93,1.85-1.97,2.84-3.13l2.47-11.32c-.25-1.88-.8-3.5-1.67-4.87s-1.9-2.43-3.09-3.17c-1.2-.74-2.53-1.12-4.02-1.12-1.73,0-3.4.49-5,1.47-1.61.98-3.07,2.29-4.39,3.92-1.32,1.63-2.37,3.49-3.15,5.57s-1.17,4.26-1.17,6.55c0,1.96.35,3.72,1.05,5.27.7,1.55,1.71,2.75,3.03,3.61,1.32.86,2.88,1.29,4.7,1.29Z"/>
  </g>
  <g>
    <g>
      <polygon class="cls-1" points="68.95 0 76.4 1.13 61.14 102.02 116.11 38.32 121.81 43.23 49.8 126.68 68.95 0"/>
      <circle class="cls-1" cx="96" cy="27.56" r="10.2"/>
    </g>
    <g>
      <polygon class="cls-1" points="36.55 39.06 31.41 39.84 41.96 109.63 3.94 65.57 0 68.97 49.8 126.68 36.55 39.06"/>
      <circle class="cls-1" cx="17.85" cy="58.13" r="7.05"/>
    </g>
  </g>
</svg>